<?xml version="1.0" standalone="no"?>
<!DOCTYPE svg PUBLIC "-//W3C//DTD SVG 1.1//EN" "http://www.w3.org/Graphics/SVG/1.1/DTD/svg11.dtd" >
<!--
2013-9-30: Created.
-->
<svg>
<metadata>
Created by iconfont
</metadata>
<defs>

<font id="iconfont" horiz-adv-x="1024" >
  <font-face
    font-family="iconfont"
    font-weight="500"
    font-stretch="normal"
    units-per-em="1024"
    ascent="896"
    descent="-128"
  />
    <missing-glyph />
    
    <glyph glyph-name="forms" unicode="&#58949;" d="M817.717-107.789c-5.628 0-10.233 4.605-10.233 10.233v622.139c0 5.628-4.605 10.233-10.233 10.233h-61.398c-5.628 0-10.233-4.605-10.233-10.233v-622.139c0-5.628-4.605-10.233-10.233-10.233h-88.777c-5.628 0-10.233 4.605-10.233 10.233v758.744c0 5.628-4.605 10.233-10.233 10.233h-61.398c-5.628 0-10.233-4.605-10.233-10.233v-758.744c0-5.628-4.605-10.233-10.233-10.233h-90.286c-5.628 0-10.233 4.605-10.233 10.233l0 502.418c0 5.628-4.605 10.233-10.233 10.233h-61.398c-5.628 0-10.233-4.605-10.233-10.233v-502.419c0-5.628-4.605-10.233-10.233-10.233h-62.416c-5.628 0-10.233 4.605-10.233 10.233l0 375.324c0 5.628-4.605 10.233-10.233 10.233h-61.398c-5.628 0-10.233-4.605-10.233-10.233v-375.323c0-5.628-4.605-10.233-10.233-10.233h-92.693c-5.628 0-10.233-4.605-10.233-10.233v-30.699c0-5.628 4.605-10.233 10.233-10.233h875.005c5.628 0 10.233 4.605 10.233 10.233v30.699c0 5.628-4.605 10.233-10.233 10.233h-131.51z"  horiz-adv-x="1024" />

    
    <glyph glyph-name="report1" unicode="&#58974;" d="M968-192h-912c-13.248 0-24 10.688-24 24s10.752 24 24 24h912c13.248 0 24-10.752 24-24 0-13.312-10.688-24-24-24zM176 240h-48c-26.496 0-48-21.504-48-48v-240c0-26.56 21.504-48 48-48h48c26.496 0 48 21.504 48 48v240c0 26.496-21.504 48-48 48zM128-48v240h48v-240h-48zM416 528h-48c-26.496 0-48-21.504-48-48v-528c0-26.56 21.504-48 48-48h48c26.496 0 48 21.504 48 48v528c0 26.496-21.504 48-48 48zM368-48v528h48v-528h-48zM656 432h-48c-26.56 0-48-21.44-48-48v-432c0-26.56 21.504-48 48-48h48c26.496 0 48 21.504 48 48v432c0 26.56-21.44 48-48 48zM608-48v432h48v-432h-48zM896 768h-48c-26.496 0-48-21.504-48-48v-768c0-26.496 21.504-48 48-48h48c26.496 0 48 21.504 48 48v768c0 26.496-21.44 48-48 48zM848-48v768h48v-768h-48z"  horiz-adv-x="1024" />

    
    <glyph glyph-name="xiaoshoubaobiao" unicode="&#58985;" d="M916.2 832 107.8 832C48.3 832 0 783.7 0 724.2l0-677.3C0-12.7 48.3-61 107.8-61l808.3 0c59.6 0 107.8 48.3 107.8 107.8L1023.9 724.2C1024 783.7 975.7 832 916.2 832zM960 46.8c0-24.2-19.7-43.8-43.8-43.8L107.8 3C83.7 3 64 22.7 64 46.8L64 724.2c0 24.2 19.7 43.8 43.8 43.8l808.3 0c24.2 0 43.8-19.7 43.8-43.8L959.9 46.8zM575 608c0-17.7 14.3-32 32-32l179.4 0L543 334.1 408.8 471.8c-6 6.1-14.1 9.6-22.7 9.7-0.1 0-0.1 0-0.2 0-8.5 0-16.6-3.4-22.6-9.4L137.6 246.6c-12.5-12.5-12.5-32.8 0-45.3 6.3-6.3 14.4-9.4 22.6-9.4 8.2 0 16.4 3.1 22.6 9.4l202.8 202.6 134.2-137.6c6-6.1 14.1-9.6 22.7-9.7 8.5-0.1 16.8 3.3 22.8 9.3L832 531.1 832 351c0-17.7 14.3-32 32-32s32 14.3 32 32L896 640 607 640C589.3 640 575 625.7 575 608z"  horiz-adv-x="1024" />

    
    <glyph glyph-name="crmbaobiao" unicode="&#59013;" d="M800 704c-53 0-96-43-96-96 0-23.2 8.3-44.5 22-61.1l-98.9-164.8c-6.2 1.3-12.6 1.9-19.1 1.9-14.8 0-28.9-3.4-41.4-9.4l-64 64c6 12.5 9.4 26.6 9.4 41.4 0 53-43 96-96 96s-96-43-96-96c0-23.2 8.3-44.5 22-61.1l-98.9-164.8c-6.2 1.3-12.6 1.9-19.1 1.9-53 0-96-43-96-96s43-96 96-96 96 43 96 96c0 23.2-8.3 44.5-22 61.1l98.9 164.8c6.2-1.3 12.6-1.9 19.1-1.9 14.8 0 28.9 3.4 41.4 9.4l64-64c-6-12.5-9.4-26.6-9.4-41.4 0-53 43-96 96-96s96 43 96 96c0 23.2-8.3 44.5-22 61.1l98.9 164.8c6.2-1.3 12.6-1.9 19.1-1.9 53 0 96 43 96 96S853 704 800 704zM224 128c-17.6 0-32 14.4-32 32s14.4 32 32 32 32-14.4 32-32S241.6 128 224 128zM384 480c0 17.6 14.4 32 32 32s32-14.4 32-32-14.4-32-32-32S384 462.4 384 480zM608 256c-17.6 0-32 14.4-32 32s14.4 32 32 32 32-14.4 32-32S625.6 256 608 256zM800 576c-17.6 0-32 14.4-32 32s14.4 32 32 32 32-14.4 32-32S817.6 576 800 576zM916.2 832 107.8 832C48.3 832 0 783.7 0 724.2l0-677.3C0-12.7 48.3-61 107.8-61l808.3 0c59.6 0 107.8 48.3 107.8 107.8L1023.9 724.2C1024 783.7 975.7 832 916.2 832zM960 46.8c0-24.2-19.7-43.8-43.8-43.8L107.8 3C83.7 3 64 22.7 64 46.8L64 724.2c0 24.2 19.7 43.8 43.8 43.8l808.3 0c24.2 0 43.8-19.7 43.8-43.8L959.9 46.8z"  horiz-adv-x="1024" />

    
    <glyph glyph-name="dingdanbaobiao" unicode="&#59033;" d="M472.2 170.4 119.6 170.4c-30.7 0-55.6 24.9-55.6 55.6L64 776.4C64 807.1 88.9 832 119.6 832l656.8 0c30.7 0 55.6-24.9 55.6-55.6l0-289.7c0-17.7 14.3-32 32-32s32 14.3 32 32L896 776.4C896 842.3 842.3 896 776.4 896L119.6 896C53.7 896 0 842.3 0 776.4l0-550.3c0-66 53.7-119.6 119.6-119.6l352.6 0c17.7 0 32 14.3 32 32S489.9 170.4 472.2 170.4zM735 480.1c17.7 0 32 14.3 32 32L767 769 510.1 769c-17.7 0-32-14.3-32-32s14.3-32 32-32l147.3 0L454.2 503.1 339.6 620.6c-6 6.1-14.1 9.6-22.7 9.7-8.5 0.1-16.8-3.3-22.8-9.4L96.6 423.6c-12.5-12.5-12.5-32.8 0-45.3 6.3-6.3 14.4-9.4 22.6-9.4 8.2 0 16.4 3.1 22.6 9.4l174.5 174.4 114.6-117.5c6-6.1 14.1-9.6 22.7-9.7 8.5-0.1 16.8 3.3 22.8 9.3L703 660.1l0-148C703 494.5 717.3 480.1 735 480.1zM1010 238.2 878.6 369.8c-9 9.1-21.3 14.2-34.2 14.2L630 384c-29.8 0-54-24.1-54-53.8l0-402.4c0-29.7 24.2-53.8 54-53.8l340 0c29.8 0 54 24.1 54 53.8L1024 204.3C1024 217 1019 229.2 1010 238.2zM960-62 640-62 640 320l197.9 0L960 197.7 960-62zM691.7 192l91.9 0c17.7 0 32 14.3 32 32s-14.3 32-32 32l-91.9 0c-17.7 0-32-14.3-32-32S674 192 691.7 192zM659.7 128c0-17.7 14.3-32 32-32l206.9 0c17.7 0 32 14.3 32 32s-14.3 32-32 32L691.7 160C674 160 659.7 145.7 659.7 128zM898.6 64 691.7 64c-17.7 0-32-14.3-32-32s14.3-32 32-32l206.9 0c17.7 0 32 14.3 32 32S916.2 64 898.6 64z"  horiz-adv-x="1024" />

    
    <glyph glyph-name="04" unicode="&#59273;" d="M672.235971 831.944007l-479.940007 0c-74.230721 0-63.992001-36.347457-63.992001-95.988001l0-703.912011c0-79.350081-10.23872-95.988001 63.992001-95.988001l607.924009 0c87.925009 0 95.988001 19.453568 95.988001 95.988001l0 575.928009C761.888764 739.411574 851.605549 673.627797 672.235971 831.944007zM832.215973 64.039995c0-57.976753-2.23972-63.992001-63.992001-63.992001l-511.936008 0c-51.257593 0-63.992001 0.447944-63.992001 63.992001L192.295963 703.960005c0 89.524809-1.023872 63.992001 63.992001 63.992001l383.952006 0c0.447944-82.357705 0-127.984002 0-127.984002 0-66.807649 28.988376-95.988001 95.988001-95.988001l95.988001 0L832.215973 64.039995zM320.279965 384l415.948006 0 0 63.992001-415.948006 0C320.279965 447.992001 320.279965 384 320.279965 384zM320.279965 224.019998l415.948006 0 0 63.992001-415.948006 0C320.279965 288.011999 320.279965 224.019998 320.279965 224.019998z"  horiz-adv-x="1024" />

    
    <glyph glyph-name="weibiaoti4" unicode="&#58900;" d="M59.733 384l85.333 46.933c4.267 0 8.533 0 12.8 0l349.867-192c4.267 0 8.533 0 12.8 0l349.867 192c4.267 0 8.533 0 12.8 0l85.333-46.933-443.733-247.467c-4.267 0-8.533 0-12.8 0l-452.267 247.467zM81.067 593.067l426.667 234.667c4.267 0 8.533 0 12.8 0l426.667-234.667c8.533-4.267 8.533-17.067 0-21.333l-426.667-234.667c-4.267 0-8.533 0-12.8 0l-426.667 234.667c-8.533 8.533-8.533 17.067 0 21.333zM516.267 38.4l349.867 192c4.267 0 8.533 0 12.8 0l85.333-46.933-443.733-247.467c-4.267 0-8.533 0-12.8 0l-448 247.467 85.333 46.933c4.267 0 8.533 0 12.8 0l349.867-192c0-4.267 8.533-4.267 8.533 0z"  horiz-adv-x="1024" />

    
    <glyph glyph-name="baobiao" unicode="&#59311;" d="M244.51083 83.704656c0-23.075555-16.553001-41.782615-36.97103-41.782615l0 0c-20.419052 0-36.97103 18.707061-36.97103 41.782615l0 645.675512c0 23.075555 16.553001 41.782615 36.97103 41.782615l0 0c20.419052 0 36.97103-18.707061 36.97103-41.782615L244.51083 83.704656zM416.947134 193.506435c0-24.375154-19.760043-44.135196-44.135196-44.135196l0 0c-24.375154 0-44.135196 19.760043-44.135196 44.135196l0 119.951953c0 24.375154 19.760043 44.135196 44.135196 44.135196l0 0c24.375154 0 44.135196-19.760043 44.135196-44.135196L416.947134 193.506435zM603.109044 193.506435c0-24.375154-19.760043-44.135196-44.135196-44.135196l0 0c-24.375154 0-44.135196 19.760043-44.135196 44.135196L514.838651 599.113289c0 24.375154 19.760043 44.135196 44.135196 44.135196l0 0c24.375154 0 44.135196-19.760043 44.135196-44.135196L603.109044 193.506435zM796.990776 193.506435c0-24.375154-19.760043-44.135196-44.135196-44.135196l0 0c-24.375154 0-44.135196 19.760043-44.135196 44.135196L708.720384 372.115322c0 24.375154 19.760043 44.135196 44.135196 44.135196l0 0c24.375154 0 44.135196-19.760043 44.135196-44.135196L796.990776 193.506435zM217.480196 41.923064c-23.075555 0-41.782615 15.854083-41.782615 35.411511l0 0c0 19.557428 18.707061 35.410488 41.782615 35.410488l625.209388 0c23.075555 0 41.782615-15.854083 41.782615-35.410488l0 0c0-19.557428-18.707061-35.411511-41.782615-35.411511L217.480196 41.923064z"  horiz-adv-x="1024" />

    
    <glyph glyph-name="icon-report" unicode="&#59323;" d="M319.255 576.353h-255.981v-511.961l255.981-0v511.961zM255.258 128.387h-127.99v383.97h127.99v-383.97zM639.247 832.332h-255.996v-767.94h255.997v767.94zM575.251 128.387h-128.006v639.95h128.007v-639.95zM703.24 704.342v-639.95h255.98v639.95h-255.98zM895.225 128.387h-127.989v511.96h127.989l0-511.96zM63.274 0.399h895.947v-63.996h-895.947v63.996z"  horiz-adv-x="1024" />

    
    <glyph glyph-name="baobiaotongji" unicode="&#59325;" d="M511.70816 831.97952c-247.27552 0-447.72864-200.45312-447.72864-447.72352 0-247.27552 200.45312-447.72352 447.72864-447.72352 247.2704 0 447.72352 200.448 447.72352 447.72352C959.43168 631.5264 758.97856 831.97952 511.70816 831.97952zM316.84608 160.38912 209.88416 160.38912l0 127.70304 106.96704 0L316.8512 160.38912zM557.50656 160.38912l-106.9568 0L450.54976 458.35264l106.9568 0L557.50656 160.38912zM798.17216 160.38912l-106.96192 0L691.21024 586.04544l106.96192 0L798.17216 160.38912z"  horiz-adv-x="1024" />

    
    <glyph glyph-name="icon" unicode="&#59326;" d="M228.254587-17.306922 66.10251-17.306922l0 240.783948 162.152077 0L228.254587-17.306922zM471.464795-17.306922 309.318858-17.306922 309.318858 544.516834l162.145937 0L471.464795-17.306922zM714.681142-17.306922 552.540322-17.306922 552.540322 303.732885 714.681142 303.732885 714.681142-17.306922zM957.896466-17.306922 795.744389-17.306922 795.744389 785.306922l162.152077 0L957.896466-17.306922z"  horiz-adv-x="1024" />

    
    <glyph glyph-name="baobiao1" unicode="&#59327;" d="M995.837 144.802l-11.13 0L984.707 745.92l11.13 0c18.45 0 33.4 14.955 33.4 33.395 0 18.445-14.95 33.395-33.4 33.395L38.515 812.71C20.07 812.71 5.12 797.76 5.12 779.315c0-18.44 14.95-33.395 33.395-33.395l11.132 0 0-601.118L38.515 144.802c-18.445 0-33.395-14.945-33.395-33.39s14.95-33.39 33.395-33.39l434.134 0 0-66.8-77.92 0c-18.445 0-33.395-14.945-33.395-33.39s14.95-33.39 33.395-33.39l222.629 0c18.45 0 33.4 14.945 33.4 33.39s-14.95 33.39-33.4 33.39l-77.92 0 0 66.8 456.399 0c18.45 0 33.4 14.945 33.4 33.39S1014.287 144.802 995.837 144.802zM116.435 144.802 116.435 745.92l801.483 0 0-601.118L116.435 144.802 116.435 144.802zM762.528 595.151 557.874 390.496l-110.205 110.2c-8.692 8.692-22.787 8.692-31.482 0l-173.172-173.17c-8.692-8.7-8.692-22.795 0-31.48 8.7-8.7 22.795-8.7 31.487 0l157.427 157.42 110.2-110.205c8.695-8.685 22.79-8.685 31.485 0l220.394 220.404c8.69 8.695 8.69 22.79 0 31.487C785.318 603.843 771.218 603.843 762.528 595.151z"  horiz-adv-x="1030" />

    
    <glyph glyph-name="baobiao2" unicode="&#59328;" d="M860.693447-42.666661 163.306553-42.666661C133.694432-42.666661 109.661407-18.633636 109.661407 10.978484L109.661407 757.021526C109.661407 786.633647 133.694432 810.666672 163.306553 810.666672L860.693447 810.666672C890.305568 810.666672 914.338593 786.633647 914.338593 757.021526L914.338593 10.978484C914.338593-18.633636 890.305568-42.666661 860.693447-42.666661ZM860.693447 703.966477 163.306553 703.966477 163.306553 10.656614 860.693447 10.656614 860.693447 703.966477ZM807.048302 277.326633 216.951698 277.326633 216.951698 650.643202 807.048302 650.643202 807.048302 277.326633ZM530.185704 429.303331 424.772993 534.072301C423.968316 535.252494 424.236542 536.861848 423.217284 537.881106 417.852769 543.191975 410.8789 545.284136 403.851386 544.962265 396.877517 545.284136 389.903648 543.191975 384.539134 537.881106 383.466231 536.861848 383.788102 535.252494 382.929779 534.072301L277.517068 429.303331C267.485426 419.271689 267.485426 403.070855 277.517068 393.092858 287.602355 383.11486 303.91048 383.11486 313.942122 393.092858L403.851386 482.46567 493.814296 393.092858C503.845938 383.11486 520.154062 383.11486 530.185704 393.092858 540.270992 403.070855 540.270992 419.271689 530.185704 429.303331ZM746.161061 588.575769C745.570965 589.380446 745.83919 590.506994 745.088158 591.258026 743.586094 592.76009 741.386643 592.438219 739.616353 593.511122 739.616353 593.511122 739.562708 593.511122 739.562708 593.511122 737.738773 594.53038 735.914838 595.281412 733.876323 595.871508 733.876323 595.871508 733.876323 595.871508 733.822678 595.871508 733.769033 595.871508 733.769033 595.871508 733.715387 595.871508 731.408646 596.51525 729.101905 597.319927 726.580583 597.319927 726.097777 597.319927 725.722261 597.105347 725.293099 597.051702 724.649358 597.051702 724.112906 597.427218 723.415519 597.319927L619.290291 597.319927C604.484231 597.319927 592.467719 585.410705 592.467719 570.65829 592.467719 555.905875 606.898263 545.659652 646.112864 543.996653L661.133505 543.996653 545.742797 429.303331C535.711154 419.271689 535.711154 403.070855 545.742797 393.092858 555.828084 383.11486 572.136208 383.11486 582.167851 393.092858L699.75801 509.98563 699.75801 464.172676C699.75801 449.31297 711.774523 437.350103 726.580583 437.350103 741.386643 437.350103 753.403156 449.31297 753.403156 464.172676L753.403156 570.497355C753.403156 570.551 753.403156 570.551 753.403156 570.604645 753.403156 570.604645 753.403156 570.65829 753.403156 570.65829 753.403156 574.19887 752.652124 577.524869 751.36464 580.528997 750.345383 583.103964 748.736028 585.196124 747.019383 587.288285 746.697513 587.717446 746.536577 588.200253 746.161061 588.575769ZM592.467719 170.680083 216.951698 170.680083 216.951698 224.003358 592.467719 224.003358 592.467719 170.680083ZM753.403156 63.979888 216.951698 63.979888 216.951698 117.356808 753.403156 117.356808 753.403156 63.979888Z"  horiz-adv-x="1024" />

    
    <glyph glyph-name="xiaoshoubaobiao1" unicode="&#59329;" d="M147.2 256 51.2 256C19.2 256 0 230.4 0 204.8l0-211.2C0-38.4 19.2-64 51.2-64l96 0C172.8-64 192-38.4 192-12.8l0 217.6C192 230.4 172.8 256 147.2 256zM128 19.2C128 6.4 115.2 0 96 0S64 6.4 64 19.2l0 153.6C64 185.6 76.8 192 96 192S128 185.6 128 172.8L128 19.2zM403.2 448 307.2 448C275.2 448 256 422.4 256 396.8l0-403.2C256-38.4 275.2-64 307.2-64l96 0c25.6 0 51.2 25.6 51.2 51.2L454.4 396.8C448 422.4 428.8 448 403.2 448zM384 19.2C384 6.4 371.2 0 352 0S320 6.4 320 19.2L320 364.8C320 377.6 332.8 384 352 384S384 377.6 384 364.8L384 19.2zM908.8 512l-96 0c-32 0-51.2-25.6-51.2-51.2l0-467.2c0-32 19.2-57.6 51.2-57.6l96 0c25.6 0 51.2 25.6 51.2 51.2L960 460.8C953.6 486.4 934.4 512 908.8 512zM889.6 19.2c0-12.8-12.8-19.2-32-19.2-19.2 0-32 6.4-32 19.2L825.6 428.8c0 12.8 12.8 19.2 32 19.2 19.2 0 32-6.4 32-19.2L889.6 19.2zM659.2 320 563.2 320C531.2 320 512 294.4 512 268.8l0-275.2C512-38.4 531.2-64 563.2-64l96 0c25.6 0 44.8 25.6 44.8 51.2L704 268.8C704 294.4 684.8 320 659.2 320zM640 19.2c0-12.8-12.8-19.2-32-19.2S576 6.4 576 19.2l0 217.6C576 249.6 588.8 256 608 256s32-6.4 32-19.2L640 19.2zM64 307.2l288 249.6 204.8-140.8c19.2-25.6 44.8-6.4 44.8 0L896 729.6l0-57.6C896 652.8 908.8 640 928 640S960 652.8 960 672l0 128C960 819.2 947.2 832 928 832l-128 0C780.8 832 768 819.2 768 800S780.8 768 800 768l44.8 0L576 486.4 371.2 627.2c0 0 0 0 0 0C358.4 640 339.2 640 326.4 627.2L19.2 358.4C6.4 345.6 6.4 320 19.2 307.2 32 300.8 51.2 300.8 64 307.2z"  horiz-adv-x="1024" />

    
    <glyph glyph-name="baobiaochaxun" unicode="&#59335;" d="M354.24814-9.281131 103.69264-9.281131c-47.63081 0-86.381369 38.086433-86.381369 84.900645L17.311271 794.849252c0 46.815235 38.750559 84.900645 86.381369 84.900645l577.583694 0c47.63081 0 86.381369-38.086433 86.381369-84.900645l0-260.484639-51.16531 0L716.492394 794.849252c0 18.60166-15.797801 33.735335-35.21606 33.735335L103.69264 828.584588c-19.418258 0-35.21606-15.133675-35.21606-33.735335l0-719.230762c0-18.60166 15.797801-33.735335 35.21606-33.735335l250.554476 0L354.247116-9.281131zM182.882214 717.213058l386.707412 0 0-64.450894-386.707412 0 0 64.450894ZM182.882214 546.013931l193.353706 0 0-64.450894-193.353706 0 0 64.450894ZM982.891743-42.894693 872.954889 67.043185c78.709643 101.137445 71.589478 247.427252-21.37175 340.388481-50.339502 50.339502-116.317169 75.508741-182.295859 75.508741s-131.956358-25.169239-182.295859-75.508741c-100.679004-100.679004-100.679004-263.911692 0-364.591719 50.339502-50.339502 116.317169-75.508741 182.295859-75.508741 55.863309 0 111.722524 18.050098 158.093645 54.138014l109.937878-109.937878L982.891743-42.894693zM669.287279 18.496515c-55.19509 0-107.086947 21.494547-146.115845 60.523445s-60.523445 90.920756-60.523445 146.115845 21.494547 107.086947 60.523445 146.115845c39.028898 39.028898 90.920756 60.523445 146.116869 60.523445 55.19509 0 107.086947-21.494547 146.115845-60.523445s60.523445-90.920756 60.523445-146.115845S854.433046 118.048859 815.403125 79.01996C776.374226 39.991062 724.482369 18.496515 669.287279 18.496515z"  horiz-adv-x="1024" />

    
    <glyph glyph-name="baobiaofenxi" unicode="&#59367;" d="M719.665667-12.545478l4.620227 0c-48.200792 6.016017-73.910337 25.273616-87.565335 44.730761L387.278417 32.185282c-13.658068-19.457144-39.364543-38.714743-87.568405-44.730761l3.01773 0c-15.066137 0-27.114544-12.233626-27.114544-27.076682 0-15.043624 12.248975-27.079752 27.114544-27.079752l416.938947 0c15.066137 0 27.114544 12.233626 27.114544 27.079752C746.981802-24.581606 734.732827-12.545478 719.665667-12.545478zM928.942017 834.702935 95.054913 834.702935c-39.160905 0-70.895677-31.69077-70.895677-70.803579l0-627.013477c1.204431-33.29429 28.721135-59.968813 62.461587-59.968813l850.555739 0c33.740452 0 61.058634 26.675546 62.464657 59.968813l0.200568 116.939339L999.841787 763.899356C999.840764 803.012166 968.108039 834.702935 928.942017 834.702935zM568.638975 144.91167c0-8.626471-7.033184-15.649422-15.668865-15.649422l-82.144882 0c-8.635681 0-15.665795 7.02295-15.665795 15.649422l0 10.828626c0 8.626471 7.030114 15.643282 15.665795 15.643282l82.144882 0c8.635681 0 15.668865-7.016811 15.668865-15.643282L568.638975 144.91167zM941.194062 241.391025c0-6.819313-5.420453-12.440333-12.253068-12.440333L95.054913 228.950691c-6.825452 0-12.453636 5.621021-12.453636 12.440333L82.601276 763.899356c0 6.816243 5.627161 12.437264 12.453636 12.437264l833.685513 0c6.832615 0 12.453636-5.621021 12.453636-12.437264L941.194062 241.391025zM715.450668 523.601478l31.330566 0 1.006933 1.006933c0 9.627265-0.806365 19.457144-2.211365 29.081339L715.450668 523.601478zM643.547035 701.317019l-99.416244-99.286284 0-31.289634 118.500904 118.342292C656.404877 693.697481 649.980561 697.709865 643.547035 701.317019zM599.364767 719.572802l-55.233975-55.160297 0-31.292704 78.33102 78.228689C615.029538 714.758146 607.200222 717.364507 599.364767 719.572802zM544.534997 727.19541l-0.405229-0.401136 0-31.292704 29.5275 29.482475C564.018747 726.389044 554.376133 727.19541 544.534997 727.19541zM621.859084 523.601478l99.818403 99.69356c-3.613294 6.415107-7.628748 12.83533-12.253068 19.056008L590.527494 523.601478 621.859084 523.601478zM695.568852 659.798417c-2.411933 2.606361-4.821819 5.213745-7.43125 7.823176-2.613524 2.606361-5.423523 5.213745-8.234545 7.823176l-135.772266-135.791709 0-15.84692 15.266705 0L695.568852 659.798417zM684.316577 523.601478l55.835679 55.763025c-2.208295 7.823176-5.019317 15.445784-8.033977 23.068392l-78.926584-78.830393L684.316577 523.602502zM508.587274 692.091914c-112.873744 0-204.457602-91.466178-204.457602-204.189496 0-112.727411 91.583858-204.189496 204.457602-204.189496 112.870674 0 204.454532 91.463108 204.454532 204.189496L508.587274 487.902418 508.587274 692.091914z"  horiz-adv-x="1024" />

    
    <glyph glyph-name="baobiao21" unicode="&#59370;" d="M819.2 32 819.2 492.8 691.2 435.2 691.2 32 595.2 32 595.2 403.2 505.6 358.4 467.2 396.8 467.2 32 396.8 32 396.8 448 268.8 377.6 268.8 32 160 32 160 768 128 768 128 32 128 0 160 0 896 0 896 32ZM435.2 531.2 512 396.8 544 416 544 416 793.6 563.2 844.8 480 883.2 640 723.2 678.4 774.4 595.2 524.8 448 448 582.4 448 582.4 448 582.4 192 428.8 211.2 396.8Z"  horiz-adv-x="1024" />

    
    <glyph glyph-name="baobiao3" unicode="&#59398;" d="M832.012919 801.929508c-14.678304-3.25002-29.331026-6.622838-44.008306-9.880021-27.132964-6.021134-54.271044-12.017708-81.418334-17.972327-15.370059-3.373841-30.78105-6.573719-46.1419-9.985422-13.364379-2.968611-26.680663-6.126534-40.693818-9.358135 22.417569-21.664416 44.360324-42.872436 66.441225-64.212464-14.373359-15.196097-28.264741-29.904077-42.182728-44.588521-7.336082-7.741311-14.69263-15.465227-22.077831-23.160489-17.740036-18.476817-35.46063-36.973076-53.270251-55.384401-14.490016-14.979156-29.098735-29.843702-43.652196-44.760436-0.623193-0.63752-1.216711-1.301645-1.828648-1.948375-8.165983-8.616238-16.334014-17.2335-24.725124-26.087145-31.022551 28.303626-61.489446 56.100716-92.359524 84.268242-11.526521-12.047384-23.045879-24.166399-34.651194-36.199457-12.237719-12.68695-24.558325-25.294083-36.842093-37.938054-11.910261-12.261255-23.813359-24.523533-35.723619-36.784788-12.407588-12.769838-24.823362-25.53456-37.225833-38.310537-11.535731-11.876492-23.010063-23.810289-34.599006-35.635615-21.084201-21.516036-42.259476-42.942021-63.335491-64.46829-9.212826-9.403161-18.283412-18.945491-27.375487-28.464285-0.673335-0.704035-1.020236-1.721201-1.485841-2.536776 11.886725-11.390421 23.570835-22.520923 35.177174-33.731242 5.109368-4.934382 5.107321-5.074575 10.219759 0.207731 6.547113 6.767124 12.93459 13.688767 19.456121 20.478404 10.109242 10.526751 20.271696 20.998243 30.416753 31.490202 10.764158 11.130502 21.540595 22.248723 32.302707 33.383318 9.893324 10.237155 19.766183 20.491707 29.661553 30.726815 10.762111 11.132548 21.4925 22.298865 32.317033 33.373085 18.812461 19.240203 37.686321 38.422078 56.535621 57.629535 0.62524 0.638543 1.257643 1.2689 1.871627 1.915629 8.495488 8.986675 16.989953 17.97335 25.341155 26.809599 31.712259-28.323069 62.815651-56.105832 94.433766-84.342943 8.413624 8.945743 16.382109 17.514909 24.458041 25.986861 15.950274 16.733103 31.956829 33.410947 47.941895 50.106188 16.234753 16.95516 32.472576 33.905204 48.707328 50.859341 15.988136 16.694217 31.918967 33.444716 47.974641 50.075489 14.224979 14.736633 28.630061 29.303396 42.86732 44.030819 4.26821 4.412496 8.238638 9.109472 12.56927 13.923104 24.399713-23.01825 48.229444-45.49824 72.64246-68.529793 1.336438 7.110955 2.520403 13.071713 3.564175 19.058055 2.707668 15.528672 5.326309 31.072693 8.033977 46.601364 2.285043 13.107529 4.691859 26.192545 6.968715 39.300075 2.667759 15.359826 5.230118 30.737048 7.880481 46.098921 2.709715 15.699564 5.395894 31.403221 8.245801 47.079248 1.25969 6.933923 2.888793 13.802354 4.352121 20.700461 0 0.357134 0 0.714268 0 1.071402C836.532863 802.535305 834.231447 802.420695 832.012919 801.929508zM712.8264-0.412137c32.260751 0 64.178695 0 96.495728 0 0 165.071569 0 329.72256 0 494.169913-32.485879 0-64.530712 0-96.495728 0C712.8264 328.828446 712.8264 164.305369 712.8264-0.412137zM538.228873-0.260687c32.42755 0 64.47136 0 96.704482 0 0 127.959324 0 255.576863 0 383.626237-32.556487 0-64.726164 0-96.704482 0C538.228873 255.184169 538.228873 127.44281 538.228873-0.260687zM358.281501-0.216685c32.473599 0 64.514339 0 96.517217 0 0 102.062514 0 203.734124 0 305.606303-32.249495 0-64.163345 0-96.517217 0C358.281501 203.205331 358.281501 101.410923 358.281501-0.216685zM197.580472-0.212592c32.477692 0 64.520479 0 96.504938 0 0 69.924559 0 139.457192 0 209.1863-32.255635 0-64.168462 0-96.504938 0C197.580472 138.913049 197.580472 69.254549 197.580472-0.212592z"  horiz-adv-x="1024" />

    
    <glyph glyph-name="baobiao4" unicode="&#59414;" d="M955.872185 790.068966C954.309685 790.068966 953.37931 791.026441 953.37931 791.513671L953.37931 723.653685C953.37931 724.156204 954.290441 725.098408 955.872185 725.098408L68.127815 725.098408C69.690315 725.098408 70.62069 724.140932 70.62069 723.653685L70.62069 791.513671C70.62069 791.011169 69.709559 790.068966 68.127815 790.068966L955.872185 790.068966ZM0 791.513671 0 723.653685C0 685.58479 30.226573 654.477718 68.127815 654.477718L955.872185 654.477718C993.832819 654.477718 1024 685.673472 1024 723.653685L1024 791.513671C1024 829.582583 993.773427 860.689655 955.872185 860.689655L68.127815 860.689655C30.167181 860.689655 0 829.493901 0 791.513671ZM873.603796 654.477718C871.995357 654.477718 871.191446 655.304845 871.191446 656.038647L871.191446 248.968104C871.191446 249.621663 872.075582 250.529033 873.603796 250.529033L150.396204 250.529033C152.004643 250.529033 152.808554 249.701906 152.808554 248.968104L152.808554 656.038647C152.808554 655.385088 151.924418 654.477718 150.396204 654.477718L873.603796 654.477718ZM82.187864 656.038647 82.187864 248.968104C82.187864 211.141844 112.545086 179.908343 150.396204 179.908343L873.603796 179.908343C911.494109 179.908343 941.812136 211.022989 941.812136 248.968104L941.812136 656.038647C941.812136 693.864907 911.454914 725.098408 873.603796 725.098408L150.396204 725.098408C112.505891 725.098408 82.187864 693.983762 82.187864 656.038647ZM366.495868 179.908343 711.56676 179.908343C716.653692 179.908343 726.690057 173.832686 729.325974 168.940438L861.880938-77.0807C871.130959-94.248695 892.547001-100.66748 909.714997-91.417441 926.88301-82.16742 933.301778-60.751378 924.051756-43.583364L791.496792 190.209165 285.299853 207.864338C285.299853 207.864338 331.954847 151.376313 343.142788 167.349213 347.290394 173.270687 359.836866 179.908343 366.495868 179.908343ZM343.142788 167.349213C354.33073 183.322094 285.299853 190.209165 285.299853 190.209165L110.292003-41.992139C99.104062-57.965021 102.983027-79.983228 118.955908-91.171169 134.928808-102.359111 156.946997-98.480163 168.134956-82.507264L343.142788 167.349213ZM611.62014 377.909884 753.613471 509.073814C767.938454 522.306278 768.824126 544.646003 755.591662 558.970986 742.359199 573.295969 720.019474 574.181641 705.69449 560.949177L563.70116 429.785247C561.007457 427.29698 553.171686 426.222892 550.363224 427.700966 533.105964 436.783369 511.753446 430.156341 502.671042 412.899081 493.588639 395.641803 500.215667 374.289284 517.472927 365.206881 546.889304 349.725219 587.071135 355.233156 611.62014 377.909884ZM408.738233 413.05201C411.540145 415.561746 419.780008 416.622133 422.751991 415.057991L517.472927 365.206881C534.730205 356.124478 556.082723 362.751523 565.165127 380.008783 574.24753 397.266044 567.620484 418.618562 550.363224 427.700966L455.642271 477.552075C426.428646 492.927047 386.300893 487.762979 361.619915 465.655684L237.851048 354.793119C223.324954 341.781751 222.097002 319.458216 235.10837 304.932122 248.11972 290.406012 270.443255 289.178077 284.969366 302.189427L408.738233 413.05201Z"  horiz-adv-x="1024" />

    
    <glyph glyph-name="baobiaotongji1" unicode="&#59415;" d="M280.257 374.73h-92.697c-25.567 0-46.348-20.782-46.348-46.348v-185.394c0-25.567 20.783-46.348 46.348-46.348h92.697c25.567 0 46.348 20.783 46.348 46.348v185.394c0 25.566-20.783 46.348-46.348 46.348zM558.348 699.171h-92.697c-25.567 0-46.348-20.783-46.348-46.348v-509.834c0-25.567 20.782-46.348 46.348-46.348h92.697c25.567 0 46.348 20.783 46.348 46.348v509.834c0 25.567-20.783 46.348-46.348 46.348zM836.441 560.125h-92.697c-25.567 0-46.348-20.782-46.348-46.348v-370.789c0-25.567 20.783-46.348 46.348-46.348h92.697c25.567 0 46.348 20.783 46.348 46.348v370.789c0 25.567-20.783 46.348-46.348 46.348z"  horiz-adv-x="1024" />

    
    <glyph glyph-name="baobiao5" unicode="&#59423;" d="M569.469659 834.21364c-15.547699 0-28.152751-12.605052-28.15275-28.152751v-359.704225c0-15.547699 12.605052-28.152751 28.15275-28.152751h359.717536c15.547699 0 28.152751 12.605052 28.152751 28.152751 0 213.868143-174.002144 387.856976-387.870287 387.856976z m28.152751-359.704225V776.725551c160.408018-13.554194 288.676276-141.808117 302.23047-302.216136h-302.23047zM804.122674 334.556578c0-188.272034-153.163006-341.44835-341.435039-341.44835S121.238261 146.285568 121.238261 334.556578s153.17734 341.435039 341.44835 341.435039h28.152751v56.305502H462.686611c-219.325452 0-397.753852-178.429424-397.753851-397.740541 0-219.325452 178.429424-397.753852 397.753851-397.753852 219.311117 0 397.740541 178.429424 397.740541 397.753852v28.152751H804.12165v-28.152751z"  horiz-adv-x="1024" />

    
    <glyph glyph-name="baobiaobiaoweiguanli" unicode="&#59614;" d="M569.6 780.8L569.6 896 454.4 896l0-115.2L0 780.8l0-115.2 57.6 0 0-576 358.4 0L192-83.2 230.4-128l275.2 224 0 0 275.2-224 38.4 44.8-217.6 179.2 364.8 0 0 576L1024 672 1024 780.8 569.6 780.8zM908.8 153.6L115.2 153.6l0 512 793.6 0L908.8 153.6zM281.6 268.8L281.6 441.6l172.8 0c0 83.2-70.4 147.2-153.6 147.2-83.2 0-153.6-70.4-153.6-153.6C153.6 352 198.4 268.8 281.6 268.8zM339.2 211.2C428.8 211.2 512 300.8 512 384L339.2 384 339.2 211.2zM793.6 556.8L627.2 556.8l0-57.6 172.8 0L800 556.8zM793.6 441.6L627.2 441.6 627.2 384l172.8 0L800 441.6zM793.6 326.4L627.2 326.4l0-57.6 172.8 0L800 326.4z"  horiz-adv-x="1024" />

    
    <glyph glyph-name="baobiao6" unicode="&#59724;" d="M273.423 499.845l178.482 127.931c7.694 5.515 18.384 3.869 24.063-3.703l100.47-133.96c10.254-13.672 29.649-16.443 43.321-6.189l162.979 122.234c9.426 7.069 11.336 20.441 4.267 29.867-7.07 9.426-20.441 11.336-29.867 4.267L618.062 535.984c-8.021-6.016-19.4-4.39-25.416 3.631l-104.15 138.867c-6.524 8.699-18.771 10.655-27.68 4.422L251.472 536.432c-10.103-6.062-13.379-19.166-7.317-29.269 6.061-10.104 19.166-13.379 29.268-7.318zM954.182 826.182H69.818c-12.853 0-23.273-10.42-23.273-23.273s10.42-23.273 23.273-23.273h69.818V230.24c0-30.759 24.935-55.694 55.694-55.694h633.339c30.759 0 55.694 24.935 55.694 55.694V779.636h69.818c12.853 0 23.273 10.42 23.273 23.273 0.001 12.853-10.419 23.273-23.272 23.273zM837.818 230.24c0-5.045-4.104-9.149-9.149-9.149H195.331c-5.045 0-9.149 4.104-9.149 9.149V779.636h651.637V230.24zM302.545 360.727h325.818c12.853 0 23.273 10.42 23.273 23.273s-10.419 23.273-23.273 23.273H302.545c-12.853 0-23.273-10.42-23.273-23.273 0.001-12.853 10.42-23.273 23.273-23.273zM721.455 314.182h-418.91c-12.853 0-23.273-10.419-23.273-23.273 0-12.853 10.42-23.273 23.273-23.273h418.909c12.853 0 23.273 10.42 23.273 23.273s-10.419 23.273-23.272 23.273zM169.48-21.422c-7.864-7.864-8.793-20.555-1.651-29.08 8.158-9.738 22.696-10.216 31.48-1.431l226.478 226.479h-60.339L169.48-21.422zM645.908 174.545h-60.339l226.478-226.479a21.266 21.266 0 0 1 15.085-6.249 21.282 21.282 0 0 1 16.082 7.315c7.44 8.502 6.669 21.437-1.32 29.426L645.908 174.545z"  horiz-adv-x="1024" />

    
    <glyph glyph-name="baobiaoguanli1" unicode="&#59728;" d="M979.2 6.4H108.8c-19.2 0-32 12.8-32 32V793.6c0 19.2-12.8 32-32 32s-32-12.8-32-32v-787.2c0-32 25.6-64 64-64h896c19.2 0 32 12.8 32 32s-12.8 32-25.6 32zM172.8 256h64c6.4 0 19.2 6.4 25.6 19.2l64 108.8 96-217.6 19.2-19.2c12.8-6.4 32 6.4 38.4 19.2l128 422.4 89.6-307.2c0-12.8 12.8-25.6 32-25.6h160c12.8-19.2 32-32 51.2-32 32 0 64 25.6 64 64s-25.6 64-64 64c-25.6 0-44.8-12.8-51.2-32h-140.8L633.6 710.4c0 12.8-19.2 25.6-38.4 19.2-6.4 0-12.8-6.4-12.8-6.4s-6.4-6.4-6.4-12.8L441.6 268.8l-83.2 192c0 6.4-6.4 6.4-6.4 12.8-6.4 6.4-19.2 6.4-32 0-6.4 0-12.8-6.4-12.8-12.8L217.6 320h-44.8c-19.2 0-32-12.8-32-32 0-12.8 12.8-32 32-32z"  horiz-adv-x="1024" />

    
    <glyph glyph-name="baobiao7" unicode="&#59871;" d="M990.792-41H66.424V119.896l179.88 250.872 143.96-162.6c6.744-7.616 16.528-11.576 26.792-11.128a33.216 33.216 0 0 1 25.312 14.144l109.008 156.408 144.64-93.288a33.136 33.136 0 0 1 45.568 9.376l271.224 404.064a33.2 33.2 0 1 1-55.136 37.008L704.608 347.784l-144.16 92.992a33.224 33.224 0 0 1-45.24-8.92l-103.2-148.048-143.584 162.176a33.04 33.04 0 0 1-26.56 11.144 33.176 33.176 0 0 1-25.28-13.816L66.424 233.888V850.16A33.216 33.216 0 0 1 0 850.16v-924.368a33.2 33.2 0 0 1 33.208-33.208h957.576a33.184 33.184 0 0 1 33.208 33.208 33.168 33.168 0 0 1-33.2 33.208z"  horiz-adv-x="1024" />

    
    <glyph glyph-name="-baobiaozhongxin" unicode="&#59872;" d="M298.658909 299.636364a46.545455 46.545455 0 0 1-93.090909 0v-231.749819h93.090909v231.749819zM401.454545 267.636364v-199.749819h93.09091V267.636364a46.545455 46.545455 0 0 1-93.09091 0zM965.818182 11.636364H93.090909V791.272727a34.909091 34.909091 0 1 1-69.818182 0V-11.636364a46.545455 46.545455 0 0 1 46.545455-46.545454h896a34.909091 34.909091 0 1 1 0 69.818182z m-349.090909 581.818181l311.272727-107.636363V826.181818H205.568v-372.363636l219.159273-46.545455 192 186.181818z m0-168.727272v-356.840728h93.090909V424.727273a46.545455 46.545455 0 0 1-93.090909 0z m215.272727-69.818182v-287.022546h93.090909V354.909091a46.545455 46.545455 0 0 1-93.090909 0z"  horiz-adv-x="1024" />

    
    <glyph glyph-name="baobiao-xianxing" unicode="&#59880;" d="M928 768H544V832h-64v-64H96c-17.6 0-32-14.4-32-32v-512c0-17.6 14.4-32 32-32h384v-50.4l-152.8-89.6 32-56 144 84h19.2l144-84 32 56L544 141.6V192h384c17.6 0 32 14.4 32 32V736c0 17.6-14.4 32-32 32z m-32-512H128V704h768v-448zM790.4 640l41.6-48-316.8-271.2L352 458.4 233.6 359.2 192.8 408l160 133.6 163.2-137.6L790.4 640z"  horiz-adv-x="1024" />

    
    <glyph glyph-name="baobiao8" unicode="&#59882;" d="M514.048 310.272c-2.048 2.048-8.192 2.048-8.192 0l4.096 6.144 4.096-6.144z m124.928 149.504l-98.304-169.984c-12.288-22.528-38.912-24.576-57.344-6.144l-120.832 129.024-120.832-223.232c-8.192-16.384-28.672-28.672-49.152-28.672h-81.92c-34.816 0-61.44 26.624-61.44 61.44v512c0 34.816 26.624 61.44 61.44 61.44h798.72c34.816 0 61.44-26.624 61.44-61.44v-512c0-34.816-26.624-61.44-61.44-61.44H532.48v-143.36h184.32c12.288 0 20.48-8.192 20.48-20.48s-8.192-20.48-20.48-20.48h-409.6c-12.288 0-20.48 8.192-20.48 20.48s8.192 20.48 20.48 20.48h184.32v143.36c0 22.528 18.432 40.96 40.96 40.96h378.88c12.288 0 20.48 8.192 20.48 20.48v512c0 10.24-10.24 20.48-20.48 20.48h-798.72c-12.288 0-20.48-8.192-20.48-20.48v-512c0-10.24 10.24-20.48 20.48-20.48h81.92c4.096 0 10.24 4.096 12.288 6.144l124.928 231.424c12.288 22.528 38.912 26.624 57.344 8.192l120.832-129.024 98.304 169.984c-20.48 22.528-32.768 51.2-32.768 83.968 0 67.584 55.296 122.88 122.88 122.88s122.88-55.296 122.88-122.88-55.296-122.88-122.88-122.88c-22.528-4.096-43.008 2.048-59.392 10.24z m57.344 26.624c45.056 0 81.92 36.864 81.92 81.92s-36.864 81.92-81.92 81.92-81.92-36.864-81.92-81.92 36.864-81.92 81.92-81.92z"  horiz-adv-x="1024" />

    
    <glyph glyph-name="xiaoshoubaobiao3" unicode="&#59884;" d="M128.256 271.808a32 32 0 0 1-32-32v-192a32 32 0 0 1 64 0v192a32 32 0 0 1-32 32zM384.256 495.872a32 32 0 0 1-32-32v-416a32 32 0 0 1 64 0v416a32 32 0 0 1-32 32zM640.256 271.808a32 32 0 0 1-32-32v-192a32 32 0 0 1 64 0v192a32 32 0 0 1-32 32zM896.256 495.872a32 32 0 0 1-32-32v-416a32 32 0 0 1 64 0v416a32 32 0 0 1-32 32zM907.392 749.568a32.768 32.768 0 0 1-15.872 2.24h-123.264a32 32 0 0 1 0-64h47.616L639.744 511.744 408.896 742.592a33.472 33.472 0 0 1-25.088 9.536 33.024 33.024 0 0 1-24.704-9.472L105.408 488.896a33.152 33.152 0 0 1 46.784-46.848l231.232 231.296 231.168-231.168c6.848-6.848 16-9.92 25.088-9.472a32.96 32.96 0 0 1 25.088 9.472l199.424 199.424v-49.728a32 32 0 0 1 64 0v128a31.68 31.68 0 0 1-20.8 29.696z"  horiz-adv-x="1024" />

    
    <glyph glyph-name="icon-p_mrpbaobiao" unicode="&#59905;" d="M939.008-17.408H105.472V805.888c0 11.264-9.216 20.48-20.48 20.48s-20.48-9.216-20.48-20.48v-843.776c0-11.264 9.216-20.48 20.48-20.48h854.016c11.264 0 20.48 9.216 20.48 20.48s-9.216 20.48-20.48 20.48zM203.776 32.768h71.68c22.528 0 40.96 18.432 40.96 40.96V304.128c0 22.528-18.432 40.96-40.96 40.96h-71.68c-22.528 0-40.96-18.432-40.96-40.96v-230.4c0-22.528 18.432-40.96 40.96-40.96z m71.68 40.96v-20.48 20.48z m-71.68 230.4h71.68v-230.4h-71.68V304.128zM403.456 32.768h71.68c22.528 0 40.96 18.432 40.96 40.96V540.672c0 22.528-18.432 40.96-40.96 40.96h-71.68c-22.528 0-40.96-18.432-40.96-40.96v-466.944c0-22.528 18.432-40.96 40.96-40.96z m71.68 40.96v-20.48 20.48z m-71.68 466.944h71.68v-466.944h-71.68V540.672zM604.16 32.768h71.68c22.528 0 40.96 18.432 40.96 40.96V457.728c0 22.528-18.432 40.96-40.96 40.96h-71.68c-22.528 0-40.96-18.432-40.96-40.96v-384c0-22.528 18.432-40.96 40.96-40.96z m0 424.96h71.68v-384h-71.68V457.728zM803.84 32.768h71.68c22.528 0 40.96 18.432 40.96 40.96V762.88c0 22.528-18.432 40.96-40.96 40.96h-71.68c-22.528 0-40.96-18.432-40.96-40.96v-689.152c0-22.528 18.432-40.96 40.96-40.96z m0 730.112h71.68v-689.152h-71.68V762.88z"  horiz-adv-x="1024" />

    
    <glyph glyph-name="zhinengbaobiao" unicode="&#59906;" d="M1021.033736 467.824989A512.002665 512.002665 0 0 1 515.088839 895.988127H512.18111A505.702585 505.702585 0 0 1 27.559562 545.849058a512.729598 512.729598 0 0 1 786.056151-577.426574 72.693232 72.693232 0 0 1 7.511634 110.009091L283.43974 615.876872a36.588927 36.588927 0 1 1-51.612195-51.612195L769.030531 26.57707A438.34019 438.34019 0 0 0 450.634174-49.023892a428.647759 428.647759 0 0 0-207.902644 90.139608 441.247919 441.247919 0 0 0-147.567262 473.475253A433.251664 433.251664 0 0 0 512.18111 823.294895h2.423108A436.159393 436.159393 0 0 0 948.340503 457.405626s-390.120346 0-392.543453-1.211554a36.588927 36.588927 0 0 1 9.207809-72.693232H948.340503a72.693232 72.693232 0 0 1 72.693233 84.324149z"  horiz-adv-x="1024" />

    
    <glyph glyph-name="baobiao-normal" unicode="&#59908;" d="M892.6 403.5l-334.7 0.4c-14.3 0-25.9 11.6-26 26l-0.4 334.7c0 9.1-3.7 18-10.2 24.4-6.6 6.5-15.3 10-24.5 9.9-90.4-1-175-30.8-244.7-86-33.4-26.5-62.5-58.2-86.2-94.1-24-36.2-42.1-76-53.9-118.3-20.9-74.5-21-152.4-0.3-225.3 19.5-68.7 56.9-132.1 108.1-183.3 51.3-51.3 114.7-88.7 183.3-108.1 36.3-10.3 73.9-15.5 111.7-15.5 38 0 76.3 5.2 113.7 15.7 42.3 11.8 82.1 29.9 118.3 53.9 35.9 23.8 67.6 52.8 94.1 86.2 55.3 69.7 85 154.4 86 244.7 0.1 9.2-3.4 17.9-9.9 24.5-6.3 6.5-15.2 10.2-24.4 10.2z m-98.7-242.2c-22.6-28.5-49.5-53.2-80.2-73.5-31-20.5-65.1-36-101.3-46.1-63.9-17.8-130.6-17.9-192.9-0.3-58.8 16.7-113.2 48.8-157.3 92.9s-76.2 98.4-92.9 157.3c-17.7 62.3-17.6 129 0.3 192.9 10.1 36.2 25.6 70.3 46.1 101.3 20.3 30.6 45 57.6 73.5 80.2 52.5 41.6 115.1 66.2 182.3 71.8l0.5-359.4c0-18.9 15.4-34.3 34.3-34.3l359.4-0.5c-5.6-67.2-30.1-129.8-71.8-182.3zM931.2 615.1c-17.8 42.1-43.3 79.9-75.7 112.4s-70.3 57.9-112.4 75.7C699.5 821.6 653.2 831 605.5 831c-16.6 0-30-13.4-30-30v-324c0-8 3.2-15.6 8.8-21.2 5.6-5.6 13.2-8.8 21.2-8.8l323.5 0.4c16.6 0 30 13.4 30 30 0 47.8-9.4 94.1-27.8 137.7z m-295.7-108V769.5c67.1-6.8 129.2-36.2 177.5-84.5 48.3-48.3 77.7-110.5 84.5-177.6l-262-0.3z"  horiz-adv-x="1024" />

    
    <glyph glyph-name="baobiao-selected" unicode="&#59909;" d="M892.6 403.5l-334.7 0.4c-14.3 0-25.9 11.6-26 26l-0.4 334.7c0 9.1-3.7 18-10.2 24.4-6.6 6.5-15.3 10-24.5 9.9-90.4-1-175-30.8-244.7-86-33.4-26.5-62.5-58.2-86.2-94.1-24-36.2-42.1-76-53.9-118.3-20.9-74.5-21-152.4-0.3-225.3 19.5-68.7 56.9-132.1 108.1-183.3 51.3-51.3 114.7-88.7 183.3-108.1 36.3-10.3 73.9-15.5 111.7-15.5 38 0 76.3 5.2 113.7 15.7 42.3 11.8 82.1 29.9 118.3 53.9 35.9 23.8 67.6 52.8 94.1 86.2 55.3 69.7 85 154.4 86 244.7 0.1 9.2-3.4 17.9-9.9 24.5-6.3 6.5-15.2 10.2-24.4 10.2zM931.2 615.1c-17.8 42.1-43.3 79.9-75.7 112.4s-70.3 57.9-112.4 75.7C699.5 821.6 653.2 831 605.5 831c-16.6 0-30-13.4-30-30v-324c0-8 3.2-15.6 8.8-21.2 5.6-5.6 13.2-8.8 21.2-8.8l323.5 0.4c16.6 0 30 13.4 30 30 0 47.8-9.4 94.1-27.8 137.7z"  horiz-adv-x="1024" />

    
    <glyph glyph-name="baobiaoxitong" unicode="&#59918;" d="M686.158568 738.86445H364.030691c-54.997442 0-99.519182-44.521739-99.519182-96.900256V319.836317c0-54.997442 44.521739-99.519182 99.519182-99.519181H497.595908c10.475703 0 18.332481 7.856777 18.332481 18.33248s-7.856777 18.332481-18.332481 18.332481h-133.565217c-34.046036 0-60.235294 26.189258-60.235295 60.235294V639.345269c0 34.046036 26.189258 60.235294 60.235295 60.235294h322.127877c34.046036 0 60.235294-26.189258 60.235294-60.235294v-235.703325c-5.237852 2.618926-13.094629 2.618926-18.332481 2.618926h-41.902813c-47.140665 0-86.424552-39.283887-86.424553-86.424553v-52.378516c0-26.189258 20.951407-47.140665 47.140665-47.140665h36.664962c54.997442 0 99.519182 44.521739 99.519182 99.519181V641.964194c0 52.378517-44.521739 96.900256-96.900256 96.900256z m60.235294-421.647059c0-34.046036-26.189258-60.235294-60.235294-60.235294h-36.664962c-5.237852 0-10.475703 5.237852-10.475703 10.475704v54.997442c0 26.189258 20.951407 49.759591 49.759591 49.759591h41.902813c10.475703 0 18.332481-7.856777 18.332481-18.332481v-36.664962zM374.506394 589.585678h319.508951c10.475703 0 18.332481 7.856777 18.332481 18.332481s-7.856777 18.332481-18.332481 18.33248H374.506394c-10.475703 0-18.332481-7.856777-18.332481-18.33248s7.856777-18.332481 18.332481-18.332481zM374.506394 469.11509h319.508951c10.475703 0 18.332481 7.856777 18.332481 18.33248s-7.856777 18.332481-18.332481 18.332481H374.506394c-10.475703 0-18.332481-7.856777-18.332481-18.332481s7.856777-18.332481 18.332481-18.33248zM560.450128 385.309463h-188.56266c-10.475703 0-18.332481-7.856777-18.332481-18.332481s7.856777-18.332481 18.332481-18.332481h188.56266c10.475703 0 18.332481 7.856777 18.332481 18.332481s-7.856777 18.332481-18.332481 18.332481zM940.194373 896h-811.867007C57.616368 896 0 838.383632 0 767.672634v-576.163683c0-70.710997 57.616368-128.327366 128.327366-128.327365h811.867007c70.710997 0 128.327366 57.616368 128.327366 128.327365v576.163683c2.618926 70.710997-54.997442 128.327366-128.327366 128.327366z m57.616369-704.491049c0-31.42711-26.189258-54.997442-54.997443-54.997442H130.946292c-31.42711 0-54.997442 26.189258-54.997443 54.997442v576.163683c0 31.42711 26.189258 54.997442 54.997443 54.997443h811.867007c31.42711 0 54.997442-26.189258 54.997443-54.997443v-576.163683zM906.148338-52.051151h-201.657289v20.951407c0 18.332481-13.094629 31.42711-31.42711 31.42711H377.12532c-18.332481 0-31.42711-13.094629-31.42711-31.42711v-20.951407H144.040921c-20.951407 0-36.664962-15.713555-36.664962-36.664962S123.089514-125.381074 144.040921-125.381074h762.107417c20.951407 0 36.664962 15.713555 36.664961 36.664961s-15.713555 36.664962-36.664961 36.664962z"  horiz-adv-x="1071" />

    
    <glyph glyph-name="zhiluyongdianbaobiao" unicode="&#59920;" d="M825.681013 896H198.318987C92.03038 896 6.481013 810.450633 6.481013 704.162025v-627.362025c0-103.696203 85.549367-191.837975 191.837974-191.837975h259.240507c20.739241 0 36.293671 15.55443 36.293671 36.293671s-15.55443 36.293671-36.293671 36.293671h-259.240507c-64.810127 0-119.250633 51.848101-119.250633 119.250633V704.162025c0 64.810127 51.848101 116.658228 119.250633 116.658228h627.362026c64.810127 0 119.250633-51.848101 119.250633-116.658228V377.518987c-20.739241 12.962025-46.663291 20.739241-75.179747 20.739241h-121.843038c-132.212658 0-241.093671-106.288608-241.093671-238.501266v-163.321519c0-67.402532 54.440506-121.843038 121.843038-121.843038h114.065823c150.359494 0 274.794937 124.435443 274.794936 274.794937V704.162025C1017.518987 810.450633 929.377215 896 825.681013 896z m-82.956962-948.820253H628.658228c-25.924051 0-49.255696 20.739241-49.255696 49.255696v163.321519c0 90.734177 75.179747 165.913924 165.913924 165.913924h121.843038c41.478481 0 75.179747-33.701266 75.179747-75.179747v-101.103797c0-111.473418-90.734177-202.207595-199.61519-202.207595zM817.903797 291.96962h-75.179746l-75.179747-176.283544h72.587342L690.875949-37.265823l165.913924 215.16962h-88.141772zM442.005063 416.405063c20.739241 0 38.886076 18.146835 38.886076 38.886076l191.837975 114.065823c15.55443-15.55443 38.886076-25.924051 64.810127-25.924051 51.848101 0 93.326582 41.478481 93.326582 93.326583s-41.478481 93.326582-93.326582 93.326582S644.212658 688.607595 644.212658 636.759494c0-15.55443 5.18481-31.108861 10.36962-44.070886L473.113924 481.21519c-7.777215 7.777215-18.146835 15.55443-31.108861 15.55443-5.18481 0-10.36962-2.592405-15.55443-2.592405l-142.582279 129.620253c7.777215 12.962025 12.962025 25.924051 12.962026 41.478481 0 41.478481-33.701266 72.587342-72.587342 72.587342S149.063291 704.162025 149.063291 665.275949s33.701266-72.587342 72.587342-72.587341c15.55443 0 28.516456 5.18481 41.478481 12.962025l142.582278-129.620253c-2.592405-5.18481-2.592405-10.36962-2.592405-15.554431 0-12.962025 5.18481-23.331646 12.962026-31.10886l-54.440507-155.544304c-10.36962 2.592405-20.739241 5.18481-33.701265 5.18481-72.587342 0-129.620253-57.032911-129.620254-129.620253s57.032911-129.620253 129.620254-129.620253 129.620253 57.032911 129.620253 129.620253c0 49.255696-28.516456 93.326582-69.994937 114.065823l54.440506 152.951898zM740.131646 691.2c31.108861 0 57.032911-25.924051 57.032911-57.032911 0-31.108861-25.924051-57.032911-57.032911-57.032912-31.108861 0-57.032911 25.924051-57.032912 57.032912 2.592405 31.108861 25.924051 57.032911 57.032912 57.032911z m-412.192405-622.177215c-44.070886 0-80.364557 36.293671-80.364557 80.364557 0 44.070886 36.293671 80.364557 80.364557 80.364557s80.364557-36.293671 80.364556-80.364557c0-44.070886-36.293671-80.364557-80.364556-80.364557z m114.065822 399.23038c7.777215 0 12.962025-5.18481 12.962026-12.962026s-5.18481-12.962025-12.962026-12.962025-12.962025 5.18481-12.962025 12.962025c2.592405 7.777215 7.777215 12.962025 12.962025 12.962026zM187.949367 665.275949c0 20.739241 15.55443 36.293671 36.293671 36.293671 20.739241 0 36.293671-15.55443 36.293671-36.293671s-15.55443-36.293671-36.293671-36.293671c-20.739241 0-36.293671 15.55443-36.293671 36.293671z"  horiz-adv-x="1024" />

    
    <glyph glyph-name="fl-baobiao" unicode="&#59921;" d="M142.609 741.392h80.996v-712.464h-80.996zM190.376 88.92399999999998H902.84v-59.996H190.376zM327.804 353.47799999999995h66.792v-178.491h-66.792zM207.375 109.92399999999998h712.464v-80.996H207.375zM453.809 511.903H520.6v-336.917h-66.791zM578.303 429.407h66.791v-254.421h-66.791zM723.796 685.895h66.791v-510.909h-66.791z"  horiz-adv-x="1024" />

    
    <glyph glyph-name="tongjibaobiao" unicode="&#59922;" d="M904 776H120c-30.9 0-56-25.1-56-56v-672c0-30.9 25.1-56 56-56h784c30.9 0 56 25.1 56 56V720c0 30.9-25.1 56-56 56z m0-728H120V603.3h784V48zM120 664v56h784v-56H120zM232 188c0-15.5 12.5-28 28-28 9 0 16.6 4.5 21.8 11.1l0.4-0.3 179.7 231.7 123.3-82.2c12.4-8.3 27.2-11.4 42.1-8.3 14.7 3 27.3 11.4 33.5 21.1l124.5 144.7-0.2 0.2c4.2 4.9 7 11.1 7 18.1 0 15.5-12.5 28-28 28-8.5 0-15.8-4-21-9.9l-0.2 0.2-126.7-147.6L492.9 449c-24.6 16.3-56.6 11.2-75-12l-180-231.9 0.4-0.3c-3.7-4.7-6.3-10.3-6.3-16.8z"  horiz-adv-x="1024" />

    
    <glyph glyph-name="baobiao10" unicode="&#60040;" d="M852.153 732.996H736.204c-0.681 46.657-38.378 84.514-84.987 85.398-4.558 43.546-41.485 77.6-86.219 77.6H458.999c-44.732 0-81.66-34.054-86.218-77.6-46.605-0.888-84.307-38.744-84.987-85.398H171.846c-46.965 0-85.038-38.073-85.038-85.039v-690.912c0-46.966 38.073-85.039 85.038-85.039h680.307c46.964 0 85.038 38.073 85.038 85.039V647.957c0 46.966-38.074 85.039-85.038 85.039z m-504.392-59.999v58.721c0 0.429 0.012 0.854 0.032 1.278 0.669 14.127 12.371 25.415 26.661 25.415h27.854c16.567 0 29.999 13.431 29.999 30v20.89c0 14.719 11.975 26.693 26.692 26.693h105.999c14.719 0 26.693-11.975 26.693-26.693v-20.891c0-16.568 13.432-30 30-30h27.854c14.29 0 25.99-11.288 26.66-25.415 0.02-0.424 0.032-0.849 0.032-1.278V662.689c0-14.718-11.974-26.692-26.692-26.692H374.454c-14.719 0-26.693 11.974-26.693 26.692v10.308z m529.43-715.952c0-13.806-11.231-25.039-25.038-25.039H171.846c-13.807 0-25.039 11.233-25.039 25.039V647.957c0 13.807 11.232 25.04 25.039 25.04h115.916v-10.307c0-47.802 38.89-86.691 86.692-86.691h275.091c47.803 0 86.691 38.889 86.691 86.691v10.307h115.917c13.807 0 25.038-11.233 25.038-25.04v-690.912zM730.361 431.358L565.955 263.035l-71.392 95.748-0.092 0.124-0.269 0.36c-0.085 0.114-0.177 0.222-0.264 0.335-0.279 0.365-0.56 0.729-0.853 1.086-0.207 0.253-0.419 0.497-0.631 0.744-0.207 0.24-0.412 0.481-0.625 0.718-0.315 0.35-0.637 0.688-0.961 1.023-0.095 0.099-0.184 0.2-0.28 0.298l-0.102 0.098a38.767 38.767 0 0 1-1.207 1.161c-0.08 0.074-0.157 0.15-0.237 0.223a38.892 38.892 0 0 1-1.309 1.138c-0.075 0.063-0.148 0.127-0.223 0.189a38.894 38.894 0 0 1-1.293 1.014c-0.104 0.079-0.208 0.162-0.313 0.24a40.389 40.389 0 0 1-1.188 0.838c-0.16 0.11-0.318 0.224-0.479 0.331-0.334 0.221-0.674 0.431-1.013 0.642-0.234 0.146-0.466 0.295-0.703 0.436-0.261 0.154-0.526 0.299-0.79 0.446-0.321 0.181-0.642 0.364-0.967 0.535-0.177 0.093-0.357 0.179-0.535 0.269-0.415 0.211-0.831 0.42-1.251 0.615-0.092 0.042-0.185 0.08-0.277 0.122a40.55 40.55 0 0 1-1.534 0.664l-0.037 0.014a39.9 39.9 0 0 1-9.202 2.489c-0.086 0.013-0.172 0.021-0.258 0.033a39.903 39.903 0 0 1-1.614 0.195c-0.208 0.021-0.417 0.031-0.625 0.049-0.417 0.034-0.835 0.07-1.253 0.092-0.337 0.018-0.675 0.021-1.012 0.03-0.291 0.008-0.582 0.021-0.874 0.022-0.446 0.002-0.893-0.012-1.34-0.024-0.184-0.005-0.367-0.004-0.551-0.012-0.522-0.022-1.043-0.061-1.565-0.104-0.111-0.009-0.221-0.014-0.332-0.023-0.557-0.05-1.113-0.116-1.668-0.189-0.078-0.011-0.155-0.018-0.232-0.028-0.547-0.075-1.092-0.167-1.636-0.266-0.09-0.017-0.181-0.029-0.271-0.046-0.507-0.096-1.011-0.207-1.515-0.322-0.13-0.029-0.261-0.055-0.391-0.086-0.443-0.105-0.883-0.227-1.324-0.349-0.193-0.053-0.387-0.101-0.579-0.157-0.364-0.106-0.725-0.226-1.087-0.344-0.27-0.087-0.54-0.169-0.809-0.263-0.28-0.097-0.557-0.205-0.835-0.31-0.349-0.13-0.698-0.257-1.044-0.397-0.2-0.081-0.397-0.17-0.596-0.255-0.421-0.178-0.841-0.358-1.258-0.552-0.131-0.062-0.261-0.129-0.392-0.191-0.478-0.229-0.953-0.464-1.424-0.712l-0.253-0.14c-0.51-0.274-1.016-0.559-1.516-0.856-0.064-0.038-0.127-0.079-0.191-0.118-0.511-0.308-1.016-0.627-1.516-0.96-0.081-0.054-0.16-0.11-0.24-0.165-0.468-0.317-0.932-0.644-1.389-0.982l-0.113-0.08c-0.108-0.081-0.21-0.168-0.318-0.25-0.372-0.284-0.743-0.57-1.107-0.869-0.25-0.204-0.491-0.414-0.733-0.623s-0.486-0.415-0.725-0.631c-0.352-0.316-0.692-0.642-1.03-0.968-0.096-0.093-0.195-0.18-0.291-0.273l-0.297-0.293-0.14-0.139-196.675-194.334c-15.714-15.527-15.866-40.854-0.339-56.567 7.825-7.92 18.137-11.886 28.455-11.886 10.156 0 20.318 3.845 28.113 11.547l164.411 162.453 72.189-96.818c0.484-0.651 0.99-1.292 1.52-1.92 0.133-0.158 0.272-0.307 0.407-0.463 0.333-0.383 0.669-0.764 1.02-1.137 0.268-0.286 0.541-0.562 0.815-0.838 0.141-0.142 0.273-0.289 0.417-0.429 0.088-0.086 0.18-0.164 0.269-0.249a38.418 38.418 0 0 1 1.578-1.435c0.34-0.294 0.681-0.585 1.028-0.865 0.213-0.171 0.43-0.334 0.645-0.5 0.346-0.268 0.689-0.537 1.042-0.791 0.336-0.243 0.679-0.471 1.021-0.701 0.401-0.271 0.805-0.535 1.214-0.79a38.3 38.3 0 0 1 1.294-0.781c0.205-0.117 0.414-0.228 0.622-0.341 0.445-0.245 0.893-0.482 1.345-0.709a40.051 40.051 0 0 1 2.066-0.958c0.154-0.066 0.309-0.134 0.464-0.198 0.594-0.247 1.192-0.479 1.796-0.696l0.202-0.075c1.409-0.498 2.839-0.915 4.285-1.251 0.075-0.018 0.15-0.031 0.226-0.049a38.763 38.763 0 0 1 2.393-0.462c0.517-0.085 1.034-0.158 1.553-0.223 0.224-0.027 0.446-0.055 0.67-0.079 0.487-0.051 0.975-0.091 1.464-0.125 0.235-0.017 0.47-0.037 0.706-0.05 0.557-0.028 1.114-0.042 1.672-0.048 0.143-0.001 0.285-0.012 0.428-0.012 0.629 0 1.258 0.02 1.886 0.05l0.095 0.005c0.598 0.03 1.194 0.074 1.791 0.131l0.178 0.018a40.5 40.5 0 0 1 1.832 0.223l0.021 0.003a39.834 39.834 0 0 1 3.829 0.753l0.001 0.001a38.621 38.621 0 0 1 2.072 0.578c0.476 0.146 0.95 0.302 1.422 0.466 0.141 0.049 0.281 0.097 0.421 0.147a39.37 39.37 0 0 1 1.384 0.53c0.124 0.05 0.249 0.096 0.372 0.146a40.49 40.49 0 0 1 1.587 0.701c0.274 0.128 0.544 0.266 0.815 0.4 0.253 0.125 0.506 0.249 0.756 0.38 0.319 0.167 0.636 0.341 0.951 0.517a36.036 36.036 0 0 1 1.586 0.929c0.148 0.092 0.296 0.188 0.444 0.282a39.82 39.82 0 0 1 4.711 3.52c0.88 0.76 1.725 1.548 2.522 2.368l197.02 201.712c15.436 15.803 15.138 41.128-0.666 56.564-15.808 15.435-41.132 15.138-56.569-0.665z"  horiz-adv-x="1024" />

    
    <glyph glyph-name="erji-yunweibaobiao" unicode="&#60149;" d="M640 230.4c-12.8 12.8-32 12.8-44.8 0s-12.8-32 0-44.8l121.6-121.6c19.2-19.2 19.2-44.8 0-57.6-19.2-19.2-44.8-19.2-57.6 0L537.6 128c-6.4 6.4-25.6 12.8-38.4 6.4-64-32-140.8-12.8-192 38.4-44.8 32-57.6 89.6-51.2 140.8l70.4-70.4c6.4-6.4 12.8-6.4 25.6-6.4s19.2 6.4 25.6 6.4l102.4 102.4c12.8 12.8 12.8 32 0 44.8L403.2 460.8c57.6 12.8 108.8-6.4 147.2-44.8 32-32 51.2-83.2 51.2-128 0-19.2 12.8-32 32-32s32 12.8 32 32c0 64-25.6 128-70.4 179.2-70.4 64-172.8 83.2-262.4 38.4-12.8 0-19.2-12.8-19.2-19.2 0-12.8 0-19.2 6.4-25.6l83.2-83.2-57.6-64-83.2 83.2c-6.4 6.4-19.2 12.8-25.6 12.8-12.8 0-19.2-6.4-25.6-19.2-38.4-96-19.2-198.4 51.2-268.8 64-64 160-83.2 243.2-57.6l108.8-108.8c19.2-19.2 44.8-32 76.8-32s51.2 12.8 76.8 32c38.4 38.4 38.4 108.8 0 147.2l-128 128zM960 537.6c0 6.4-6.4 12.8-6.4 19.2L672 832c-6.4 6.4-6.4 6.4-12.8 6.4h-6.4H224C134.4 838.4 64 768 64 678.4v-576c0-19.2 12.8-32 32-32s32 19.2 32 32v576c0 51.2 44.8 96 96 96h390.4v-243.2c0-19.2 12.8-32 32-32H896v-396.8c0-19.2 12.8-32 32-32s32 12.8 32 32V537.6c0-6.4 0 0 0 0z m-281.6 25.6V729.6l172.8-166.4h-172.8z"  horiz-adv-x="1024" />

    
    <glyph glyph-name="guizebaobiao" unicode="&#60189;" d="M192 768V832H64v-896h128v64h-64V224h64v64h-64V512h64v64h-64V768h64zM288 448h160v-512H288zM544 640h160v-704H544zM800 832h160v-896H800z"  horiz-adv-x="1024" />

    
    <glyph glyph-name="baobiao11" unicode="&#60270;" d="M767.89 768l0.11-0.11v-767.78l-0.11-0.11H256.11l-0.11 0.11V767.89l0.11 0.11h511.78m0.11 64H256a64.19 64.19 0 0 1-64-64v-768a64.19 64.19 0 0 1 64-64h512a64.19 64.19 0 0 1 64 64V768a64.19 64.19 0 0 1-64 64zM640 640h96v-160L576 640h64zM288 320h448v-64H288zM288 192h320v-64H288z"  horiz-adv-x="1024" />

    
    <glyph glyph-name="shengchengbaobiao" unicode="&#60456;" d="M500.92 587.08L386 491.29l-98 98-150.63-150.66 45.25-45.26L288 498.75l94-94 164.36 136.89L608 480V640H448zM640 832H128a64.19 64.19 0 0 1-64-64v-768a64.19 64.19 0 0 1 64-64h444a289.06 289.06 0 0 0-82.6 64H128.11l-0.11 0.11V767.89l0.11 0.11h511.78l0.11-0.11v-295a288.9 288.9 0 0 0 64 7.11V768a64.19 64.19 0 0 1-64 64zM446 320H160v-64h263.15A285.9 285.9 0 0 0 446 320zM160 128h263.15a288.91 288.91 0 0 0-7.15 64H160zM704 448c-141.38 0-256-114.62-256-256s114.62-256 256-256 256 114.62 256 256-114.62 256-256 256z m32-247.11V0h-64V200.89H544L704 352l160-151.11z"  horiz-adv-x="1024" />

    
    <glyph glyph-name="xitonganquanheguibaobiao" unicode="&#60459;" d="M547.36-58.73a255.87 255.87 0 0 0-48.88 34.91A312.67 312.67 0 0 0 474.73 0H128.11l-0.11 0.11V767.89l0.11 0.11h511.78l0.11-0.11v-240.52c6.33 4.66 9.87 7.77 10.34 8.19l21.87 20.57 21.47-20.58c0.52-0.47 4.05-3.56 10.32-8.17V768a64.19 64.19 0 0 1-64 64H128a64.19 64.19 0 0 1-64-64v-768a64.19 64.19 0 0 1 64-64h429.51q-5.01 2.51-10.15 5.27zM929 428c-27.86 0-73.16 3.36-130.31 19.46A370.36 370.36 0 0 0 704 488.79C683 501.84 672 512 672 512s-11-10.16-32-23.21a370.37 370.37 0 0 0-94.72-41.34C488.13 431.35 442.83 428 415 428c-20 0-31 1.72-31 1.72s0.77-74.8 23-206.88C425.21 115.1 472.74 42.26 519.85 0a224.59 224.59 0 0 1 42.71-30.57c39.29-21.22 72.49-29 91.69-31.8A132.22 132.22 0 0 1 672-64c1.43 0 48 0.26 109.41 33.43C839 0.53 913.17 81.77 937 222.84c22.27 132.08 23 206.88 23 206.88S949 428 929 428z m-55.15-194.52q-0.81-4.78-1.71-9.48H672v-224c-2.85 0.17-14.61 1.17-32 6.22a240.9 240.9 0 0 0-47 19.49c-13.78 7.44-40.94 25.82-68.08 65.36-25.47 37.12-43.29 81.79-53 132.89H672V433.29c9.26-5.68 19.94-11.71 32-17.7a444.17 444.17 0 0 1 77.37-29.74 583.21 583.21 0 0 1 110.25-20.27c-3.15-32.81-8.54-77.37-17.77-132.1z"  horiz-adv-x="1024" />

    
    <glyph glyph-name="baobiaoguanli11" unicode="&#60525;" d="M500.92 587.08L386 491.29l-98 98-150.63-150.66 45.25-45.26L288 498.75l94-94 164.36 136.89L608 480V640H448zM640 832H128a64.19 64.19 0 0 1-64-64v-768a64.19 64.19 0 0 1 64-64h444a289.06 289.06 0 0 0-82.6 64H128.11l-0.11 0.11V767.89l0.11 0.11h511.78l0.11-0.11v-295a288.9 288.9 0 0 0 64 7.11V768a64.19 64.19 0 0 1-64 64zM446 320H160v-64h263.15A285.9 285.9 0 0 0 446 320zM160 128h263.15a288.91 288.91 0 0 0-7.15 64H160zM704 448c-141.38 0-256-114.62-256-256s114.62-256 256-256 256 114.62 256 256-114.62 256-256 256z m181-285.63L843.15 154a13.77 13.77 0 0 1-10.23-8.84q-2.08-5.72-4.64-11.2a13.78 13.78 0 0 1 1-13.49L852.92 85a13.71 13.71 0 0 0-1.71-17.3l-22.89-22.89a13.71 13.71 0 0 0-17.3-1.71l-35.49 23.66a13.78 13.78 0 0 1-13.49 1q-5.47-2.56-11.2-4.64a13.77 13.77 0 0 1-8.84-10.27L733.63 11a13.71 13.71 0 0 0-13.45-11h-32.37a13.71 13.71 0 0 0-13.45 11L666 52.85a13.77 13.77 0 0 1-8.84 10.23q-5.72 2.08-11.2 4.64a13.78 13.78 0 0 1-13.49-1L597 43.08a13.71 13.71 0 0 0-17.3 1.71l-22.89 22.89a13.71 13.71 0 0 0-1.71 17.3l23.66 35.49a13.78 13.78 0 0 1 1 13.49q-2.56 5.47-4.64 11.2a13.77 13.77 0 0 1-10.27 8.84L523 162.37a13.71 13.71 0 0 0-11 13.45v32.37a13.71 13.71 0 0 0 11 13.45l41.85 8.36a13.77 13.77 0 0 1 10.23 8.84q2.08 5.72 4.64 11.2a13.78 13.78 0 0 1-1 13.49L555.08 299a13.71 13.71 0 0 0 1.71 17.3l22.89 22.89a13.71 13.71 0 0 0 17.3 1.71l35.49-23.66a13.78 13.78 0 0 1 13.49-1q5.47 2.56 11.2 4.64a13.77 13.77 0 0 1 8.84 10.27l8.37 41.85a13.71 13.71 0 0 0 13.45 11h32.37a13.71 13.71 0 0 0 13.45-11l8.36-41.85a13.77 13.77 0 0 1 8.84-10.23q5.72-2.08 11.2-4.64a13.78 13.78 0 0 1 13.49 1L811 340.92a13.71 13.71 0 0 0 17.3-1.71l22.89-22.89a13.71 13.71 0 0 0 1.71-17.3l-23.66-35.49a13.78 13.78 0 0 1-1-13.49q2.56-5.47 4.64-11.2a13.77 13.77 0 0 1 10.27-8.84l41.85-8.37a13.71 13.71 0 0 0 11-13.45v-32.37a13.71 13.71 0 0 0-11-13.44zM704 274.29a82.29 82.29 0 1 1 58.19-24.1 81.75 81.75 0 0 1-58.19 24.1z"  horiz-adv-x="1024" />

    
    <glyph glyph-name="peizhihechajieguobaobiao" unicode="&#60526;" d="M500.92 587.08L386 491.29l-98 98-150.63-150.66 45.25-45.26L288 498.75l94-94 164.36 136.89L608 480V640H448zM640 832H128a64.19 64.19 0 0 1-64-64v-768a64.19 64.19 0 0 1 64-64h444a289.06 289.06 0 0 0-82.6 64H128.11l-0.11 0.11V767.89l0.11 0.11h511.78l0.11-0.11v-295a288.9 288.9 0 0 0 64 7.11V768a64.19 64.19 0 0 1-64 64zM446 320H160v-64h263.15A285.9 285.9 0 0 0 446 320zM160 128h263.15a288.91 288.91 0 0 0-7.15 64H160zM704 448c-141.38 0-256-114.62-256-256s114.62-256 256-256 256 114.62 256 256-114.62 256-256 256z m160-197.55l-0.28-0.28-57.81-57.91-135.8-136L512 214.63l45.18 45.25 112.94-113.14 129.71 129.95 0.17 0.17 50.82 50.91 12.9-12.92 0.28-0.28 32-32.06z"  horiz-adv-x="1024" />

    
    <glyph glyph-name="mn_baobiao" unicode="&#58880;" d="M928 768H544V832h-64v-64H96c-17.6 0-32-14.4-32-32v-512c0-17.6 14.4-32 32-32h384v-50.4L327.2 52l32-56 144 84h19.2l144-84 32 56L544 141.60000000000002V192h384c17.6 0 32 14.4 32 32V736c0 17.6-14.4 32-32 32z m-32-512H128V704h768v-448zM790.4 640l41.6-48-316.8-271.2L352 458.4l-118.4-99.2-40.8 48.8 160 133.6L516 404l274.4 236z"  horiz-adv-x="1024" />

    
    <glyph glyph-name="baobiaomiaoshu" unicode="&#60539;" d="M852.153 732.996H736.204c-0.681 46.657-38.378 84.514-84.987 85.398-4.558 43.546-41.485 77.6-86.219 77.6H458.999c-44.732 0-81.66-34.054-86.218-77.6-46.605-0.888-84.307-38.744-84.987-85.398H171.846c-46.965 0-85.038-38.073-85.038-85.039v-690.912c0-46.966 38.073-85.039 85.038-85.039h680.307c46.964 0 85.038 38.073 85.038 85.039V647.957c0 46.966-38.074 85.039-85.038 85.039z m-504.392-59.999v58.721c0 0.429 0.012 0.854 0.032 1.278 0.669 14.127 12.371 25.415 26.661 25.415h27.854c16.567 0 29.999 13.431 29.999 30v20.89c0 14.719 11.975 26.693 26.692 26.693h105.999c14.719 0 26.693-11.975 26.693-26.693v-20.891c0-16.568 13.432-30 30-30h27.854c14.29 0 25.99-11.288 26.66-25.415 0.02-0.424 0.032-0.849 0.032-1.278V662.689c0-14.718-11.974-26.692-26.692-26.692H374.454c-14.719 0-26.693 11.974-26.693 26.692v10.308z m529.43-715.952c0-13.806-11.231-25.039-25.038-25.039H171.846c-13.807 0-25.039 11.233-25.039 25.039V647.957c0 13.807 11.232 25.04 25.039 25.04h115.916v-10.307c0-47.803 38.89-86.691 86.692-86.691h275.091c47.803 0 86.691 38.889 86.691 86.691v10.307h115.917c13.807 0 25.038-11.233 25.038-25.04v-690.912zM287.354 329.409h99.212V74.29h-99.212zM462.394 442.794h99.211V74.29h-99.211zM637.434 244.369h99.212V74.29h-99.212z"  horiz-adv-x="1024" />

    
    <glyph glyph-name="baobiaofenxi1" unicode="&#60549;" d="M602.88 266.666667a25.173333 25.173333 0 0 0 26.453333-26.88v-106.666667a26.88 26.88 0 0 0-53.333333 0v106.666667a25.173333 25.173333 0 0 0 26.88 26.88zM245.333333 384a19.626667 19.626667 0 0 1 16.213334 5.546667l175.786666 170.666666L533.333333 469.333333a26.026667 26.026667 0 0 1 37.546667 0l165.12 160V597.333333a42.666667 42.666667 0 0 1 10.666667-21.333333 27.306667 27.306667 0 0 1 21.333333-10.666667 25.173333 25.173333 0 0 1 26.88 26.88V687.786667c0 21.333333-5.546667 26.88-21.333333 26.88h-106.666667a25.173333 25.173333 0 0 1-26.88-26.88 25.173333 25.173333 0 0 1 26.88-26.453334h26.453333L554.666667 522.666667l-96 90.453333a25.6 25.6 0 0 1-37.12 0L229.12 426.666667a25.6 25.6 0 0 1 0-37.12c0-5.546667 10.666667-5.546667 16.213333-5.546667z m527.786667-10.666667a25.173333 25.173333 0 0 1-26.453333-26.88v-213.333333a26.88 26.88 0 0 1 53.333333 0v213.333333c-5.546667 16.213333-15.786667 26.88-26.88 26.88z m-367.786667 26.88v-266.666666a26.88 26.88 0 1 1 53.333334 0v266.666666a26.88 26.88 0 0 1-53.333334 0z m506.88-389.546666H165.546667a25.173333 25.173333 0 0 0-26.88 26.88V783.786667A25.173333 25.173333 0 0 1 112.213333 810.666667a25.173333 25.173333 0 0 1-26.88-26.88v-773.12A50.346667 50.346667 0 0 1 138.666667-42.666667h773.546666a26.88 26.88 0 0 1 0 53.333334zM234.666667 293.12v-160a25.173333 25.173333 0 0 1 26.88-26.453333 25.173333 25.173333 0 0 1 26.453333 26.453333v160a25.173333 25.173333 0 0 1-26.453333 26.88 25.173333 25.173333 0 0 1-26.88-26.88z"  horiz-adv-x="1024" />

    
    <glyph glyph-name="baobiaoguanli2" unicode="&#60559;" d="M534.4 368L352 550.4l-224-227.2 44.8-44.8 182.4 182.4 182.4-182.4L896 636.8l-44.8 44.8-316.8-313.6zM1024 128V832H544V896h-64v-64H0v-704h480v-64h3.2L256-96v-32h64l192 128 192-128h64v32l-224 160v64h480zM64 192V768h896v-576H64z"  horiz-adv-x="1024" />

    
    <glyph glyph-name="renshibaobiao" unicode="&#60635;" d="M960 40c0-22.064-17.936-40-40-40h-800A40.032 40.032 0 0 0 80 40v672C80 734.064 97.936 752 120 752h800c22.064 0 40-17.936 40-40v-672zM920 800h-800A88.112 88.112 0 0 1 32 712v-672C32-8.512 71.488-48 120-48h800c48.512 0 88 39.488 88 88v672C1008 760.512 968.512 800 920 800z m-134.128-299.552L542.624 257.2l-16.96 16.96-141.44 141.44a24 24 0 0 1-33.92 0L135.328 200.64a24 24 0 1 1 33.936-33.92l197.984 197.968 124.448-124.464 33.936-33.92c4.688-4.704 10.832-7.04 16.976-7.04 6.144 0 12.272 2.336 16.96 7.04l260.224 260.208 67.872-67.888V568.32H717.984l67.888-67.872z"  horiz-adv-x="1024" />

    
    <glyph glyph-name="wj-tjbb" unicode="&#60655;" d="M544.3 0H160.5c-17.7 0-32 14.3-32 32V736c0 17.7 14.3 32 32 32h383.9v-160c0-35.3 28.6-64 64-64h159.9v-192c0-17.7 14.3-32 32-32s32 14.3 32 32V625.8c0 8.5-3.3 16.6-9.3 22.6L649.7 822.6c-6 6-14.2 9.4-22.7 9.4H128.5c-35.3 0-64-28.7-64-64v-768c0-35.3 28.6-64 64-64h415.9c17.7 0 32 14.3 32 32-0.1 17.7-14.4 32-32.1 32z m96 608c-17.7 0-32 14.3-32 32V768l159.9-160H640.3zM544.3 224H223.5c-17.7 0-32-14.3-32-32s14.3-32 32-32h320.9c17.7 0 32 14.3 32 32-0.1 17.7-14.4 32-32.1 32zM607.3 416H223.5c-17.7 0-32-14.3-32-32s14.3-32 32-32h383.9c17.7 0 32 14.3 32 32-0.1 17.7-14.4 32-32.1 32zM223.5 544h191.9c17.7 0 32 14.3 32 32s-14.3 32-32 32H223.5c-17.7 0-32-14.3-32-32s14.3-32 32-32zM608.5 162h64v-226h-64zM704.5 98h64v-162h-64zM800.5 194h64v-258h-64zM895.5 226h64v-290h-64z"  horiz-adv-x="1024" />

    
    <glyph glyph-name="panhebaobiao" unicode="&#60708;" d="M961.6 878.4H76C34.4 878.4 8 852 8 810.4v-669.6c0-41.6 26.4-68 68-68H464v-73.6H298.4c-22.4 0-34.4-11.2-34.4-34.4v-41.6c0-22.4 11.2-34.4 34.4-34.4h440.8c22.4 0 34.4 11.2 34.4 34.4v41.6c0 22.4-11.2 34.4-34.4 34.4H573.6v73.6h388c41.6 0 68 26.4 68 68V810.4c0 41.6-27.2 68-68 68z m0-736.8H76V810.4h885.6v-668.8zM842.4 636l-230.4-28.8 46.4-63.2-141.6-111.2-134.4 138.4-193.6-154.4 45.6-56.8 142.4 113.6L510.4 336l192 150.4 49.6-64.8z"  horiz-adv-x="1036" />

    
    <glyph glyph-name="baobiao14" unicode="&#60745;" d="M307.2 384h409.6V486.4H307.2z m563.2 289.28V793.6h-102.4v-102.4h-102.4V793.6h-102.4v-102.4H460.8V793.6H358.4v-102.4H256V793.6H153.6v-120.32A99.328 99.328 0 0 1 102.4 588.8v-512a110.592 110.592 0 0 1 117.248-102.4h584.704A110.592 110.592 0 0 1 921.6 76.8V588.8a99.328 99.328 0 0 1-51.2 84.48zM819.2 76.8H204.8V588.8h614.4zM307.2 179.2h409.6v102.4H307.2z"  horiz-adv-x="1024" />

    
    <glyph glyph-name="yudingbaobiao" unicode="&#60750;" d="M910.848 315.904l-32.256-32.256-107.008 107.008 32.256 32.256a29.184 29.184 0 0 0 41.472 0l66.56-66.56a29.184 29.184 0 0 0-1.024-40.448zM716.8 691.2H204.8v-614.4h204.8v-102.4H204.8a102.4 102.4 0 0 0-102.4 102.4V691.2a102.4 102.4 0 0 0 102.4 102.4h512a102.4 102.4 0 0 0 102.4-102.4v-204.8h-102.4z m-102.4-673.792L460.8-25.6l43.008 150.016zM307.2 281.6v102.4h256l-102.4-102.4z m0 307.2h307.2v-102.4H307.2z m446.464-214.528l107.008-107.008-235.008-235.008-107.008 107.008z"  horiz-adv-x="1024" />

    
    <glyph glyph-name="baobiaoguanli3" unicode="&#60763;" d="M77.312-47.104c-14.336 0-25.6 11.264-25.6 25.6V716.8c0 14.336 11.264 25.6 25.6 25.6s25.6-11.264 25.6-25.6v-738.304c0-13.824-11.776-25.6-25.6-25.6zM921.6 512H256c-42.496 0-76.8 34.304-76.8 76.8V640c0 42.496 34.304 76.8 76.8 76.8h665.6c42.496 0 76.8-34.304 76.8-76.8v-51.2c0-42.496-34.304-76.8-76.8-76.8z m-665.6 153.6c-14.336 0-25.6-11.264-25.6-25.6v-51.2c0-14.336 11.264-25.6 25.6-25.6h665.6c14.336 0 25.6 11.264 25.6 25.6V640c0 14.336-11.264 25.6-25.6 25.6H256zM716.8 256H256c-42.496 0-76.8 34.304-76.8 76.8v51.2c0 42.496 34.304 76.8 76.8 76.8h460.8c42.496 0 76.8-34.304 76.8-76.8v-51.2c0-42.496-34.304-76.8-76.8-76.8z m-460.8 153.6c-14.336 0-25.6-11.264-25.6-25.6v-51.2c0-14.336 11.264-25.6 25.6-25.6h460.8c14.336 0 25.6 11.264 25.6 25.6v51.2c0 14.336-11.264 25.6-25.6 25.6H256zM460.8 0H256c-42.496 0-76.8 34.304-76.8 76.8v51.2c0 42.496 34.304 76.8 76.8 76.8h204.8c42.496 0 76.8-34.304 76.8-76.8v-51.2c0-42.496-34.304-76.8-76.8-76.8z m-204.8 153.6c-14.336 0-25.6-11.264-25.6-25.6v-51.2c0-14.336 11.264-25.6 25.6-25.6h204.8c14.336 0 25.6 11.264 25.6 25.6v51.2c0 14.336-11.264 25.6-25.6 25.6H256z"  horiz-adv-x="1024" />

    
    <glyph glyph-name="baobiaoguanli4" unicode="&#60794;" d="M77.312-47.104c-14.336 0-25.6 11.264-25.6 25.6V716.8c0 14.336 11.264 25.6 25.6 25.6s25.6-11.264 25.6-25.6v-738.304c0-13.824-11.776-25.6-25.6-25.6zM921.6 512H256c-42.496 0-76.8 34.304-76.8 76.8V640c0 42.496 34.304 76.8 76.8 76.8h665.6c42.496 0 76.8-34.304 76.8-76.8v-51.2c0-42.496-34.304-76.8-76.8-76.8z m-665.6 153.6c-14.336 0-25.6-11.264-25.6-25.6v-51.2c0-14.336 11.264-25.6 25.6-25.6h665.6c14.336 0 25.6 11.264 25.6 25.6V640c0 14.336-11.264 25.6-25.6 25.6H256zM716.8 256H256c-42.496 0-76.8 34.304-76.8 76.8v51.2c0 42.496 34.304 76.8 76.8 76.8h460.8c42.496 0 76.8-34.304 76.8-76.8v-51.2c0-42.496-34.304-76.8-76.8-76.8z m-460.8 153.6c-14.336 0-25.6-11.264-25.6-25.6v-51.2c0-14.336 11.264-25.6 25.6-25.6h460.8c14.336 0 25.6 11.264 25.6 25.6v51.2c0 14.336-11.264 25.6-25.6 25.6H256zM460.8 0H256c-42.496 0-76.8 34.304-76.8 76.8v51.2c0 42.496 34.304 76.8 76.8 76.8h204.8c42.496 0 76.8-34.304 76.8-76.8v-51.2c0-42.496-34.304-76.8-76.8-76.8z m-204.8 153.6c-14.336 0-25.6-11.264-25.6-25.6v-51.2c0-14.336 11.264-25.6 25.6-25.6h204.8c14.336 0 25.6 11.264 25.6 25.6v51.2c0 14.336-11.264 25.6-25.6 25.6H256z"  horiz-adv-x="1024" />

    
    <glyph glyph-name="baobiao16" unicode="&#60806;" d="M984.529455-49.058909H78.941091V856.529455A39.563636 39.563636 0 0 1 39.470545 896 39.563636 39.563636 0 0 1 0 856.529455v-945.05891A39.563636 39.563636 0 0 1 39.470545-128h945.05891a39.563636 39.563636 0 0 1 39.470545 39.470545 39.563636 39.563636 0 0 1-39.470545 39.470546zM937.890909-34.909091c21.783273 0 39.563636 17.826909 39.563636 39.563636V479.418182a39.656727 39.656727 0 0 1-39.563636 39.563636 39.656727 39.656727 0 0 1-39.563636-39.563636v-474.763637c0-21.783273 17.826909-39.563636 39.563636-39.563636z m-237.381818 0c21.736727 0 39.563636 17.826909 39.563636 39.563636v315.252364a39.656727 39.656727 0 0 1-39.563636 39.563636 39.656727 39.656727 0 0 1-39.563636-39.563636v-315.252364c0-21.783273 17.826909-39.563636 39.563636-39.563636z m-237.381818 0c21.783273 0 39.563636 17.826909 39.563636 39.563636V716.8A39.656727 39.656727 0 0 1 463.127273 756.363636a39.656727 39.656727 0 0 1-39.563637-39.563636v-712.145455c0-21.783273 17.826909-39.563636 39.563637-39.563636z m-237.381818 0c21.783273 0 39.563636 17.826909 39.563636 39.563636v395.636364a39.656727 39.656727 0 0 1-39.563636 39.563636 39.656727 39.656727 0 0 1-39.563637-39.563636v-395.636364c0-21.783273 17.826909-39.563636 39.563637-39.563636z"  horiz-adv-x="1024" />

    
    <glyph glyph-name="baobiaotongji2" unicode="&#60811;" d="M508.173858-116.209466c-67.48602 0-132.964314 13.222139-194.615443 39.298028-59.538001 25.181519-113.004727 61.228503-158.913312 107.137089-45.909609 45.909609-81.95557 99.375312-107.138113 158.914336-26.075889 61.651129-39.298028 127.128399-39.298028 194.615443 0 67.48602 13.221116 132.964314 39.298028 194.615443 25.182542 59.538001 61.228503 113.003703 107.138113 158.913312S254.019391 819.239755 313.557392 844.422298C375.209544 870.49921 440.687838 883.720326 508.173858 883.720326c67.484997 0 132.964314-13.221116 194.615443-39.298028 59.538001-25.182542 113.004727-61.228503 158.913313-107.138113 45.909609-45.909609 81.956593-99.375312 107.138112-158.913312 26.075889-61.652152 39.298028-127.129422 39.298028-194.615443s-13.222139-132.964314-39.298028-194.615443c-25.181519-59.539025-61.228503-113.004727-107.138112-158.914336-45.908586-45.908586-99.375312-81.95557-158.913313-107.137089-61.652152-26.076912-127.129422-39.298028-194.615443-39.298028z m0 958.997544c-253.111718 0-459.033671-205.92093-459.033671-459.033671 0-253.111718 205.92093-459.032648 459.033671-459.032648 253.111718 0 459.032648 205.92093 459.032648 459.032648 0 253.112742-205.921953 459.033671-459.032648 459.033671zM504.82867 155.505959c1.885953-1.632173 3.894703-2.260483 6.02932-2.260483 5.39794 0 11.175527 4.14746 15.822361 7.535626l20.968567 15.067161c2.889817 0.62831 5.523807 1.508353 7.783267 2.511193 1.00591-0.502443 2.13871-1.128707 3.140527-1.882883l5.774517-3.515057 8.664333 11.800767-5.900383 3.518127c-0.125867 0.125867-0.376577 0.248663-0.503467 0.37453 2.512217 5.777587 1.509377 12.432147-2.759857 18.83702-6.02932 9.292644-19.588127 18.582217-32.898271 17.579378-10.298554-0.754177-14.693654-5.40101-16.576537-9.166777-4.269233-8.66331 1.506307-19.712971 5.774517-26.117844-0.248663-0.3776-0.62524-0.62831-0.751107-1.00591-2.00875 0.125867-4.0175 0.3776-6.277983 0.62831-23.357987 2.63706-27.877931 7.283894-28.755928 8.538467-1.257643 2.134617 1.00284 6.402827 2.886747 10.298553 2.762927 5.523807 6.281053 12.304234 2.134617 18.708084-4.143367 6.529717-13.81054 8.036024-21.596878 8.538467-15.948227 1.130753-23.229051-4.646833-26.49442-9.667174-12.053524-18.711154 14.06432-56.130392 19.336394-63.540151l13.06148 7.913226c-10.80202 14.690584-24.234961 40.182164-18.962887 48.343032 1.757017 2.762927 7.40976 3.01159 11.803837 2.63706 6.15314-0.502443 8.538467-1.509377 9.04091-1.257643-0.251733-1.25355-1.635243-4.0175-2.511193-5.900384-3.140527-6.152117-7.40976-14.690584-2.386351-23.105231 4.897543-8.036024 16.825201-12.933567 38.421055-15.570627-10.293437-14.43885-7.278777-16.951067-4.267187-19.838837z m157.589155 93.925183v-126.196167H253.692956V645.09453h408.599002v-231.67243l12.056594 10.42442v-1.131777l31.264051 28.503171V685.528428h-495.239268v-602.727351h495.239268V283.333276l-43.194778-33.902134z m64.165392 195.634655l59.016115-53.866838 27.626197 25.237801-59.019185 53.744041-27.623127-25.115004zM586.074066 317.112614l59.016115-53.744042 134.1053 122.0528-59.016115 53.744042L586.074066 317.112614z m-33.401738-84.258009l75.715449 15.19405 6.40385 5.903453-59.141981 53.740972-6.403851-5.774517-16.573467-69.063958z m-24.109094-22.850428s0.751107 0.62524 3.6399 0.877997h0.754177c5.649674 0 13.684674-4.7727 17.579377-10.673084 0.499373-0.877997 1.506307-2.512217 1.757017-4.269233l-1.131777 0.502443-10.42135-7.40976c-0.62831-0.125867-1.25355-0.251733-1.882884-0.251733l0.503467 0.502443-3.518127 4.394077c-5.145184 6.53074-8.411577 14.56881-7.2798 16.32685z m57.007365-56.759725l1.379417 14.191211c-40.808428 3.266393-64.790632-26.620287-65.670675-28.000728l12.681833-8.163937c0.251733 0.251733 19.462261 24.485671 51.609425 21.973454z m25.488511-2.885723l2.009773 14.43885-15.570627 1.757017-2.00875-14.43885 15.569604-1.757017zM353.771279 614.330876h208.5672v-28.504194H353.771279v28.504194z m-63.661925-73.580833h325.848323v-15.948227H290.109354v15.948227z m0-47.969524h325.848323v-16.196891H290.109354v16.196891z m0-49.346895h325.848323v-16.07307H290.109354v16.07307z m0-50.100048h325.848323v-15.947204H290.109354v15.947204z m0 0"  horiz-adv-x="1024" />

    
    <glyph glyph-name="baobiao17" unicode="&#60847;" d="M937.6 652.8c12.4 0 22.4 10 22.4 22.4v112c0 24.7-20.1 44.8-44.8 44.8H108.8C84.1 832 64 811.9 64 787.2v-806.4c0-24.7 20.1-44.8 44.8-44.8h806.4c24.7 0 44.8 20.1 44.8 44.8V496c0 12.4-10 22.4-22.4 22.4-12.4 0-22.4-10-22.4-22.4v-336H108.8V764.8c0 12.4 10 22.4 22.4 22.4h761.6c12.4 0 22.4-10 22.4-22.4v-89.6c0-12.4 10-22.4 22.4-22.4z m-22.4-537.6v-112c0-12.4-10-22.4-22.4-22.4H131.2c-12.4 0-22.4 10-22.4 22.4v112h806.4z m-649.6 336v-134.4c0-12.3 10.1-22.4 22.4-22.4s22.4 10.1 22.4 22.4V451.2c0 12.3-10.1 22.4-22.4 22.4s-22.4-10.1-22.4-22.4z m448 44.8v-179.2c0-12.4 10-22.4 22.4-22.4s22.4 10 22.4 22.4V496c0 12.4-10 22.4-22.4 22.4s-22.4-10-22.4-22.4z m-224 134.4v-313.6c0-12.3 10.1-22.4 22.4-22.4 12.3 0 22.4 10.1 22.4 22.4V630.4c0 12.3-10.1 22.4-22.4 22.4-12.3 0-22.4-10.1-22.4-22.4z"  horiz-adv-x="1024" />

    
    <glyph glyph-name="baobiao18" unicode="&#60848;" d="M847.36-128H176.64c-84.48 0-153.6 69.12-153.6 153.6V742.4c0 84.48 69.12 153.6 153.6 153.6h670.72c84.48 0 153.6-69.12 153.6-153.6v-716.8c0-84.48-69.12-153.6-153.6-153.6zM176.64 844.8c-56.32 0-102.4-46.08-102.4-102.4v-716.8c0-56.32 46.08-102.4 102.4-102.4h670.72c56.32 0 102.4 46.08 102.4 102.4V742.4c0 56.32-46.08 102.4-102.4 102.4H176.64zM847.36 56.32H176.64c-15.36 0-25.6 10.24-25.6 25.6s10.24 25.6 25.6 25.6H844.8c15.36 0 25.6-10.24 25.6-25.6s-10.24-25.6-23.04-25.6zM529.92 168.96H176.64c-15.36 0-25.6 10.24-25.6 25.6s10.24 25.6 25.6 25.6h353.28c15.36 0 25.6-10.24 25.6-25.6s-10.24-25.6-25.6-25.6zM693.76 371.2V435.2h-87.04v35.84h87.04v20.48h-87.04v35.84h74.24l-69.12 110.08V678.4h35.84v-30.72l64-104.96 64 104.96V678.4h35.84v-40.96L742.4 527.36h74.24v-35.84h-87.04v-20.48h87.04V435.2h-87.04v-64h-35.84z"  horiz-adv-x="1024" />

    
    <glyph glyph-name="tongjibaobiao1" unicode="&#60849;" d="M156.3 368.5c7.2 0 14.4 2.6 20.1 7.8l247.9 224.9L600 419.3l224.4 245.3 66.2-66.2V770.8H718.3l63.7-63.7-0.7-0.7-182.4-199.5-171.7 177.8-291-264c-12.3-11.1-13.2-30.1-2.1-42.4 5.9-6.4 14.1-9.8 22.2-9.8zM195.6-8h-60V237c0 16.6 13.4 30 30 30s30-13.4 30-30v-245zM427-8h-60V406.6c0 16.6 13.4 30 30 30s30-13.4 30-30V-8z m231.3 0h-60V319c0 16.6 13.4 30 30 30s30-13.4 30-30v-327z m231.3 0h-60V463.3c0 16.6 13.4 30 30 30s30-13.4 30-30V-8z"  horiz-adv-x="1024" />

    
    <glyph glyph-name="baobiao19" unicode="&#60850;" d="M837.818182 709.818182H186.181818a93.090909 93.090909 0 0 1-93.090909-93.090909v-349.090909a93.090909 93.090909 0 0 1 93.090909-93.090909h302.545455v-93.09091h-139.636364a23.272727 23.272727 0 0 1 0-46.545454h325.818182a23.272727 23.272727 0 0 1 0 46.545454h-139.636364v93.09091h302.545455a93.090909 93.090909 0 0 1 93.090909 93.090909V616.727273a93.090909 93.090909 0 0 1-93.090909 93.090909z m46.545454-442.181818a46.545455 46.545455 0 0 0-46.545454-46.545455H186.181818a46.545455 46.545455 0 0 0-46.545454 46.545455V616.727273a46.545455 46.545455 0 0 0 46.545454 46.545454h651.636364a46.545455 46.545455 0 0 0 46.545454-46.545454zM302.545455 523.636364a23.272727 23.272727 0 0 1-23.272728-23.272728v-186.181818a23.272727 23.272727 0 0 1 46.545455 0v186.181818a23.272727 23.272727 0 0 1-23.272727 23.272728zM581.818182 500.363636a23.272727 23.272727 0 0 1-23.272727-23.272727v-162.909091a23.272727 23.272727 0 0 1 46.545454 0v162.909091a23.272727 23.272727 0 0 1-23.272727 23.272727zM721.454545 593.454545a23.272727 23.272727 0 0 1-23.272727-23.272727v-256a23.272727 23.272727 0 0 1 46.545455 0V570.181818a23.272727 23.272727 0 0 1-23.272728 23.272727zM442.181818 430.545455a23.272727 23.272727 0 0 1-23.272727-23.272728v-93.090909a23.272727 23.272727 0 0 1 46.545454 0v93.090909a23.272727 23.272727 0 0 1-23.272727 23.272728z"  horiz-adv-x="1024" />

    
    <glyph glyph-name="changyongtubiao_yunyingshitu" unicode="&#60851;" d="M897.55 5.5499999999999545v53a4 4 0 0 1-4 4h-56a4 4 0 0 1-4-4v-53a4 4 0 0 0-4-4H773a4 4 0 0 0-4 4v53a4 4 0 0 1-4 4h-56a4 4 0 0 1-4-4v-53a4 4 0 0 0-4-4h-55.53a4 4 0 0 0-4 4v53a4 4 0 0 1-4 4h-56a4 4 0 0 1-4-4v-53a4 4 0 0 0-4-4h-56.54a4 4 0 0 0-4 4v53a4 4 0 0 1-4 4h-56a4 4 0 0 1-4-4v-53a4 4 0 0 0-4-4h-56.54a4 4 0 0 0-4 4v53a4 4 0 0 1-4 4h-56a4 4 0 0 1-4-4v-53a4 4 0 0 0-4-4h-56.54a4 4 0 0 0-4 4v53a4 4 0 0 1-4 4h-55a4 4 0 0 0-4 4v56a4 4 0 0 1-4 4H132a4 4 0 0 0-4 4v56.51a4 4 0 0 0 4 4h56.85a4 4 0 0 1 4 4v56a4 4 0 0 1-4 4H132a4 4 0 0 0-4 4V314.6a4 4 0 0 0 4 4h56.85a4 4 0 0 1 4 4v56a4 4 0 0 1-4 4H132a4 4 0 0 0-4 4v56.54a4 4 0 0 0 4 4h56.85a4 4 0 0 1 4 4v56a4 4 0 0 1-4 4H132a4 4 0 0 0-4 4v56.54a4 4 0 0 0 4 4h56.85a4 4 0 0 1 4 4v56a4 4 0 0 1-4 4H132a4 4 0 0 0-4 4v56.54a4 4 0 0 0 4 4h56.85a4 4 0 0 1 4 4v56a4 4 0 0 1-4 4H132a4 4 0 0 0-4 4V831.33a4 4 0 0 1-4 4H68a4 4 0 0 1-4-4v-889.78a4 4 0 0 1 4-4h888.88a4 4 0 0 1 4 4v56a4 4 0 0 1-4 4h-55.33a4 4 0 0 0-4 4zM132 62.51999999999998h55.85a4 4 0 0 0 4-4v-53a4 4 0 0 0-4-4H132a4 4 0 0 0-4 4v53a4 4 0 0 0 4 4zM435.1 607.6800000000001h-176a4 4 0 0 1-4-4V132a4 4 0 0 1 4-4h176a4 4 0 0 1 4 4V603.6800000000001a4 4 0 0 1-4 4zM371.1 192h-48a4 4 0 0 0-4 4V539.6800000000001a4 4 0 0 0 4 4h48a4 4 0 0 0 4-4V196a4 4 0 0 0-4-4zM683.47 800.22h-176a4 4 0 0 1-4-4v-663.93a4 4 0 0 1 4-4h176a4 4 0 0 1 4 4V796.22a4 4 0 0 1-4 4z m-64-607.93h-48a4 4 0 0 0-4 4V732.22a4 4 0 0 0 4 4h48a4 4 0 0 0 4-4v-535.93a4 4 0 0 0-4-4zM931.55 681.4h-176a4 4 0 0 1-4-4v-545.65a4 4 0 0 1 4-4h176a4 4 0 0 1 4 4V677.4a4 4 0 0 1-4 4z m-64-489.65h-48a4 4 0 0 0-4 4V613.4a4 4 0 0 0 4 4h48a4 4 0 0 0 4-4v-417.65a4 4 0 0 0-4-4z"  horiz-adv-x="1024" />

    
    <glyph glyph-name="ziyuan1" unicode="&#60852;" d="M991.095116-125.367609H118.457584A111.876607 111.876607 0 0 0 0-25.336761V859.14653A36.85347 36.85347 0 0 0 36.85347 896a36.85347 36.85347 0 0 0 36.195373-36.85347V-25.336761c0-13.820051 19.084833-28.956298 45.408741-28.956298h872.637532a36.85347 36.85347 0 0 0 0-73.706941zM40.802057 71.403599a36.195373 36.195373 0 0 0-29.614396 57.254499L197.429306 396.503856a36.195373 36.195373 0 0 0 26.982005 15.794345 35.537275 35.537275 0 0 0 28.956298-11.187661l150.046273-148.730077 173.737789 290.879177a36.85347 36.85347 0 0 0 60.544987 3.948586L789.717224 353.727506l170.4473 419.866324a36.195373 36.195373 0 0 0 47.383034 20.401029 36.85347 36.85347 0 0 0 20.401028-48.041131l-196.771208-478.437018a38.169666 38.169666 0 0 0-28.956298-23.03342 36.195373 36.195373 0 0 0-34.22108 14.47815l-155.311054 197.429306L442.241645 172.092545a36.85347 36.85347 0 0 0-57.912596-7.239075L234.282776 318.848329 71.07455 86.539846a36.85347 36.85347 0 0 0-30.272493-15.136247z"  horiz-adv-x="1033" />

    
    <glyph glyph-name="baobiaoguanli5" unicode="&#60853;" d="M932.215434 344.615385c0 15.753846-3.938462 27.569231-19.692308 27.56923s-17.723077-11.815385-17.723077-27.56923v-320.984616c0-64.984615-31.507692-112.246154-106.338461-114.215384L162.246203-88.615385C109.076972-88.615385 48.030818-29.538462 48.030818 23.630769L46.061588 744.369231c0 53.169231 63.015385 114.215385 118.153846 114.215384l624.246154-1.96923c78.769231 0 104.369231-61.046154 104.36923-114.215385v-5.907692c0-11.815385 9.846154-21.661538 21.661539-21.661539 15.753846 0 19.692308 11.815385 19.692308 27.569231v5.907692C934.184665 831.015385 869.200049 896 788.461588 896H162.246203C77.56928 896 8.646203 829.046154 8.646203 744.369231v-720.738462C8.646203-61.046154 77.56928-128 162.246203-128h630.153846c80.738462 1.969231 145.723077 70.892308 143.753846 151.630769L932.215434 344.615385zM181.938511 139.815385v-59.076923h80.738461v59.076923H181.938511z m0 521.846153v-59.076923h80.738461v59.076923H181.938511z m0-177.230769v-59.076923h80.738461v59.076923H181.938511z m149.661538 0v-59.076923h301.292308l74.830769 59.076923H331.600049z m-149.661538-165.415384v-59.076923h80.738461v59.076923H181.938511z m460.8-179.2l-78.769231-59.076923H835.723126v59.076923h-192.984615zM331.600049 661.661538v-59.076923H717.56928l80.738462 39.384616v19.692307H331.600049z m0-342.646153v-59.076923h155.569231l76.8 59.076923H331.600049z m63.015385-179.2h-63.015385v-59.076923h63.015385v59.076923zM1012.953895 618.338462c0-1.969231-1.969231-3.938462-3.938461-5.907693l-275.692308-277.661538-1.969231-1.969231h1.969231l-153.6-157.538462-94.523077-92.553846-31.507692-3.938461V128l33.476923 31.507692 192.984615 189.046154L965.692357 640c0 5.907692 3.938462 9.846154 9.846154 13.784615 7.876923 5.907692 19.692308 5.907692 29.538461 0 7.876923-7.876923 13.784615-23.630769 7.876923-35.446153z"  horiz-adv-x="1024" />

    
    <glyph glyph-name="baobiaoxitong1" unicode="&#60854;" d="M860.110098 777.498529h-34.065727V806.326404a93.316463 93.316463 0 0 1-91.76086 89.673596H163.830268A87.586332 87.586332 0 0 1 78.764406 806.326404v-723.059823a87.586332 87.586332 0 0 1 85.065862-89.653905h40.760725v-31.919389a87.448493 87.448493 0 0 1 85.065862-89.653905h570.453243A87.56664 87.56664 0 0 1 945.175959-38.306713v723.059823a90.382478 90.382478 0 0 1-85.065861 92.745419zM163.830268 29.942888c-20.281907 0-45.88043 32.057227-45.88043 53.323693V806.326404a58.856912 58.856912 0 0 0 45.88043 50.881988h570.453243a66.22141 66.22141 0 0 0 52.575428-50.881988v-28.827875H289.656855c-47.0619 0-72.857335-43.320578-72.857335-92.745419v-654.810222H163.830268z m742.16026-68.249601a59.073515 59.073515 0 0 0-45.88043-50.862296H289.656855c-20.281907 0-34.262639 29.536757-34.262639 50.862296v723.059823c0 21.286157 13.980732 53.343384 34.262639 53.343384h570.453243c20.084995 0 45.88043-32.057227 45.88043-53.343384v-723.059823z m-394.217257 483.024441l123.660558-63.582793 125.826587 127.992615-21.463377 24.082303L623.816038 423.352807 511.970183 482.426322l-129.56791-67.38319 12.60235-30.600081zM393.823153 246.289791h354.638001V206.749918H393.823153v39.539873z"  horiz-adv-x="1024" />

    
    <glyph glyph-name="jurassic_report-analyze" unicode="&#60855;" d="M345.7 301.20000000000005c62.9 0 113.9 63.3 114.7 121.7H344v114c-56-1.6-112.4-52.6-112.4-117.7 0-66.1 50.8-118 114.1-118zM820 773.6H568V832H456v-58.4H64v-116.9h56v-379.9c0-48.3 37.7-87.7 84-87.7h245.7L267.1-25.200000000000045 309-64l206.3 242.2 199.6-241.8 42.4 38.1L580 189.20000000000005h240c46.3 0 84 39.3 84 87.7V656.7h56V773.6H820z m28-496.8c0-16.1-12.6-29.2-28-29.2H204c-15.4 0-28 13.1-28 29.2V656.7h672v-379.9zM392.5 596.4v-115.1h102.8c0 58.5-41.9 115.1-102.8 115.1zM568 598.2h224v-58.4H568zM568 481.4h224V423H568zM568 364.5h224v-58.4H568z"  horiz-adv-x="1024" />

    
    <glyph glyph-name="baobiao20" unicode="&#60856;" d="M768-64H128c-17.67 0-32 14.33-32 32V672c0 17.67 14.33 32 32 32h640c17.67 0 32-14.33 32-32v-704c0-17.67-14.33-32-32-32z m-608 64h576V640H160v-640zM896 32c-17.67 0-32 14.33-32 32V768H225c-17.67 0-32 14.33-32 32s14.33 32 32 32h671c17.67 0 32-14.33 32-32v-736c0-17.67-14.33-32-32-32zM288 64h-64V288c0 17.67 14.33 32 32 32s32-14.33 32-32v-224zM480 64h-64V224c0 17.67 14.33 32 32 32s32-14.33 32-32v-160zM672 64h-64V352c0 17.67 14.33 32 32 32s32-14.33 32-32v-288zM448.02 384c-9.07 0-18.03 3.84-24.31 11.18L352 478.83l-71.7-83.65c-11.5-13.42-31.7-14.97-45.12-3.47-13.42 11.5-14.97 31.7-3.47 45.12l96 112a32 32 0 0 0 24.3 11.17 32 32 0 0 0 24.3-11.17l77.55-90.47 168.41 112.27c14.7 9.8 34.57 5.83 44.38-8.88 9.8-14.71 5.83-34.57-8.88-44.38l-192-128a32.008 32.008 0 0 0-17.75-5.37z"  horiz-adv-x="1024" />

    
    <glyph glyph-name="caigoubaobiao" unicode="&#60857;" d="M894.82 221.73H852.3v-71.43h1.67c9.82 0 17.86-8.04 17.86-17.86s-8.04-17.86-17.86-17.86H566.03c-9.82 0-17.86 8.04-17.86 17.86s8.04 17.86 17.86 17.86h1.12v71.43h-41.96c-18.85 0-32.85-15-28.76-30.82l65.38-252.95c0.29-1.14 1.46-1.94 2.82-1.94H857.7l65.88 254.89c4.08 15.81-9.92 30.82-28.76 30.82z m-59.26-232.14c0-9.82-8.04-17.86-17.86-17.86H602.3c-9.82 0-17.86 8.04-17.86 17.86s8.04 17.86 17.86 17.86h215.4c9.82-0.01 17.86-8.04 17.86-17.86z m16.74 71.42c0-9.82-8.04-17.86-17.86-17.86H585.56c-9.82 0-17.86 8.04-17.86 17.86s8.04 17.86 17.86 17.86h248.88c9.82 0 17.86-8.03 17.86-17.86zM569.72 150.3h-76.59c-18.22 0-33.14 14.91-33.14 33.14v5.16c0 18.22 14.91 33.14 33.14 33.14h76.59c18.22 0 33.14-14.91 33.14-33.14v-5.16c0-18.23-14.91-33.14-33.14-33.14zM926.86 150.3h-76.59c-18.22 0-33.14 14.91-33.14 33.14v5.16c0 18.22 14.91 33.14 33.14 33.14h76.59c18.22 0 33.14-14.91 33.14-33.14v-5.16c0-18.23-14.91-33.14-33.14-33.14zM924.29 393.46c-2.18 2.66-4.63 5.04-7.19 7.28a84.253 84.253 0 0 1-25.75 15.32 83.037 83.037 0 0 1-18.97 4.63c-6.42 0.79-12.87 0.84-19.24 0.26-6.2-0.83-12.23-2.56-17.99-4.86-5.77-2.3-11.27-5.2-16.46-8.56-10.39-6.7-19.5-15.16-27.32-24.57-7.82-9.43-14.38-19.83-19.77-30.8-5.42-10.95-9.68-22.49-13.02-34.29-6.68-23.64-9.56-48.42-10.01-73.32l-77.14 12.36c4.15 14.57 9.02 28.98 14.83 43.08 5.8 14.09 12.54 27.88 20.36 41.07 7.84 13.18 16.72 25.8 26.88 37.38 10.11 11.59 21.49 22.13 34.01 31.04 12.52 8.89 26.23 16.14 40.76 20.84 7.25 2.36 14.71 4.06 22.25 4.97 7.53 0.91 15.18 1.02 22.67 0.13 7.32-0.63 14.57-1.98 21.52-4.13 6.96-2.15 13.62-5.07 19.78-8.72a89.993 89.993 0 0 0 16.86-12.86c2.52-2.44 4.87-5.02 7.05-7.73 2.17-2.69 4.21-5.51 5.89-8.52zM824.87 247.81l-224.91 36.03 94.45-130.44zM800 608H224c-17.6 0-32 14.4-32 32s14.4 32 32 32h576c17.6 0 32-14.4 32-32s-14.4-32-32-32zM800 437.33H224c-17.6 0-32 14.4-32 32s14.4 32 32 32h576c17.6 0 32-14.4 32-32s-14.4-32-32-32zM289 96h-65c-17.6 0-32 14.4-32 32s14.4 32 32 32h65c17.6 0 32-14.4 32-32s-14.4-32-32-32zM416 266.67H224c-17.6 0-32 14.4-32 32s14.4 32 32 32h192c17.6 0 32-14.4 32-32s-14.4-32-32-32zM480-64H146c-45.21 0-82 36.79-82 82V750c0 45.21 36.79 82 82 82h732c45.21 0 82-36.79 82-82v-398c0-17.67-14.33-32-32-32s-32 14.33-32 32V750c0 9.76-8.24 18-18 18H146c-9.76 0-18-8.24-18-18v-732c0-9.76 8.24-18 18-18h334c17.67 0 32-14.33 32-32s-14.33-32-32-32z"  horiz-adv-x="1024" />

    
    <glyph glyph-name="kehufenxibaobiao" unicode="&#60858;" d="M320.85 557.19c-40.49 0-73.43 32.94-73.43 73.43s32.94 73.43 73.43 73.43 73.43-32.94 73.43-73.43-32.94-73.43-73.43-73.43z m0 106.87c-18.44 0-33.43-15-33.43-33.43s15-33.43 33.43-33.43 33.43 15 33.43 33.43-14.99 33.43-33.43 33.43zM428 448H212.02c-5.33 0-10.44 2.13-14.2 5.91a20.014 20.014 0 0 0-5.8 14.24c0.26 34.18 13.67 66.27 37.75 90.38 24.14 24.16 56.19 37.46 90.24 37.46s66.09-13.31 90.23-37.46c24.09-24.1 37.5-56.2 37.75-90.38A19.993 19.993 0 0 0 428 448z m-193.53 40h171.07c-9.35 38.93-44.25 67.99-85.54 67.99s-76.18-29.06-85.53-67.99zM800 608H672c-17.6 0-32 14.4-32 32s14.4 32 32 32h128c17.6 0 32-14.4 32-32s-14.4-32-32-32zM800 448H544c-17.6 0-32 14.4-32 32s14.4 32 32 32h256c17.6 0 32-14.4 32-32s-14.4-32-32-32zM800 288H224c-17.6 0-32 14.4-32 32s14.4 32 32 32h576c17.6 0 32-14.4 32-32s-14.4-32-32-32zM800 128H224c-17.6 0-32 14.4-32 32s14.4 32 32 32h576c17.6 0 32-14.4 32-32s-14.4-32-32-32zM898-64H126c-34.19 0-62 27.81-62 62V770c0 34.19 27.81 62 62 62h772c34.19 0 62-27.81 62-62v-772c0-34.19-27.81-62-62-62z m-770 64h768V768H128v-768z"  horiz-adv-x="1024" />

    
    <glyph glyph-name="xiangmuxiaoshoubaobiao" unicode="&#60859;" d="M767-64H127c-17.67 0-32 14.33-32 32V672c0 17.67 14.33 32 32 32h640c17.67 0 32-14.33 32-32v-704c0-17.67-14.33-32-32-32z m-608 64h576V640H159v-640zM320 29h-64v96c0 17.67 14.33 32 32 32s32-14.33 32-32v-96zM426.67 29h-64V189c0 17.67 14.33 32 32 32s32-14.33 32-32v-160zM533.33 29h-64V151c0 17.67 14.33 32 32 32s32-14.33 32-32v-122zM640 29h-64V253c0 17.67 14.33 32 32 32s32-14.33 32-32v-224zM896 32h-97c-17.67 0-32 14.33-32 32s14.33 32 32 32h65V768H287v-63c0-17.67-14.33-32-32-32s-32 14.33-32 32V800c0 17.67 14.33 32 32 32h641c17.67 0 32-14.33 32-32v-736c0-17.67-14.33-32-32-32zM271 189c-3.82 0-7.63 1.45-10.56 4.35-5.88 5.83-5.93 15.33-0.09 21.21l113 114c5.47 5.52 14.25 5.95 20.23 0.99l104.2-86.39 97.76 146.18c4.61 6.89 13.92 8.74 20.81 4.13 6.89-4.6 8.74-13.92 4.13-20.81l-107-160a14.994 14.994 0 0 0-10.31-6.5c-4.2-0.61-8.47 0.59-11.73 3.3L385 297.7 281.65 193.44A14.937 14.937 0 0 0 271 189zM640.21 429.16c-6.75-28.28-11.2-66-7.66-93.59l-28.77 39.11-47.12 11.65c26.84 7.26 59.99 25.79 83.55 42.83zM767 448H127c-17.67 0-32 14.33-32 32s14.33 32 32 32h640c17.67 0 32-14.33 32-32s-14.33-32-32-32zM534 544H234c-5.5 0-10 4.5-10 10v44c0 5.5 4.5 10 10 10h300c5.5 0 10-4.5 10-10v-44c0-5.5-4.5-10-10-10zM640 576m-32 0a32 32 0 1 1 64 0 32 32 0 1 1-64 0Z"  horiz-adv-x="1024" />

    
    <glyph glyph-name="baobiaogongchang" unicode="&#60860;" d="M652.8-67.2H100.48A97.92 97.92 0 0 0 0 30.72V750.72A97.92 97.92 0 0 0 100.48 848h454.4L750.08 640v-300.16h-64V616.32L527.36 784H100.48a33.28 33.28 0 0 1-33.28-33.28v-720a33.28 33.28 0 0 1 33.28-33.28h552.32a33.92 33.92 0 0 1 26.88 13.44l51.84-37.76a97.28 97.28 0 0 0-78.72-40.32zM718.08 581.76h-128A97.92 97.92 0 0 0 492.8 679.04V816h64v-136.96a33.28 33.28 0 0 1 33.28-33.28h128zM251.52 99.2a32 32 0 0 0-32 32.64V444.8a32 32 0 0 0 32 32 32 32 0 0 0 32.64-32v-312.96a32.64 32.64 0 0 0-32.64-32.64zM512 88.32a32 32 0 0 0-32 32.64V491.52a32 32 0 0 0 64 0v-370.56a32 32 0 0 0-32-32.64zM384 99.2a32 32 0 0 0-32 32.64V341.76a32 32 0 0 0 64 0v-209.92a32 32 0 0 0-32-32.64zM796.16-73.6a223.36 223.36 0 1 0 223.36 223.36 222.72 222.72 0 0 0-223.36-223.36z m0 384a158.72 158.72 0 1 1 158.72-158.08 158.72 158.72 0 0 1-158.72 155.52zM815.36 120.96a42.24 42.24 0 0 0-33.92 17.28 42.88 42.88 0 0 0-3.2 45.44L857.6 332.8l56.96-30.08-58.24-110.72 110.72 21.12 12.16-64-155.52-30.08z"  horiz-adv-x="1024" />

    
    <glyph glyph-name="baobiao22" unicode="&#60861;" d="M895.946487-128H128.053513V767.875137h128.622073v-63.991081H192.044594v-767.892975h639.910812V703.884056h-66.230769V767.875137H895.946487v-895.875137zM703.973244 639.892975H320.026756V831.866219h100.146042a95.986622 95.986622 0 0 0 181.09476 0H703.973244zM384.017838 703.884056h255.964324V767.875137h-95.986621V799.870678a31.995541 31.995541 0 0 1-63.991082 0v-31.995541h-95.986621zM415.693423 479.915272h63.991081v-447.937569h-63.991081zM543.675585 543.906353h63.991081v-511.92865h-63.991081zM671.657748 447.919731h63.991081v-415.942028h-63.991081zM287.71126 255.946487h63.991081v-223.968784h-63.991081z"  horiz-adv-x="1024" />

    
    <glyph glyph-name="baobiaotongji-" unicode="&#60862;" d="M996.2 22.799999999999955H93.7c-45.2 0-81.9 36.7-81.9 81.9V732.4c0 11 9 20 20 20s20-9 20-20v-627.7c0-23.1 18.8-41.9 41.9-41.9h902.5c11 0 20-9 20-20s-9-20-20-20zM351.5 22.799999999999955H203.7c-11 0-20 9-20 20V414.1c0 11 9 20 20 20h147.9c11 0 20-9 20-20v-371.3c-0.1-11.1-9-20-20.1-20z m-127.8 40h107.9V394.1H223.7v-331.3zM604.2 22.799999999999955H456.4c-11 0-20 9-20 20V688.2c0 11 9 20 20 20h147.9c11 0 20-9 20-20v-645.4c-0.1-11.1-9-20-20.1-20z m-127.8 40h107.9V668.2H476.4v-605.4zM856.9 22.799999999999955H709.1c-11 0-20 9-20 20V288.4c0 11 9 20 20 20H857c11 0 20-9 20-20v-245.6c-0.1-11.1-9-20-20.1-20z m-127.8 40H837V268.4H729.1v-205.6z"  horiz-adv-x="1024" />

    
    <glyph glyph-name="baobiao23" unicode="&#60863;" d="M337.92 281.6a61.44 61.44 0 0 1-61.44-61.44v-40.96a61.44 61.44 0 0 1 61.44-63.488A65.536 65.536 0 0 1 404.48 179.2v40.96A66.048 66.048 0 0 1 337.92 281.6z m189.44 169.984a65.024 65.024 0 0 1-61.44-61.952V179.2a65.024 65.024 0 0 1 61.44-63.488A65.536 65.536 0 0 1 593.92 179.2V389.632a66.048 66.048 0 0 1-66.56 64z m194.56 169.984a65.536 65.536 0 0 1-66.56-63.488V179.2a65.536 65.536 0 0 1 66.56-63.488A61.44 61.44 0 0 1 783.36 179.2V559.616a61.44 61.44 0 0 1-61.44 64zM829.44 793.6H230.4A130.56 130.56 0 0 1 102.4 666.112v-594.944a130.56 130.56 0 0 1 128-127.488h599.04a125.952 125.952 0 0 1 122.88 127.488V666.112A125.952 125.952 0 0 1 829.44 793.6z m40.96-722.432a43.008 43.008 0 0 0-40.96-42.496H230.4a43.008 43.008 0 0 0-40.96 42.496V666.112a43.008 43.008 0 0 0 40.96 42.496h599.04a43.008 43.008 0 0 0 40.96-42.496z"  horiz-adv-x="1024" />

    
    <glyph glyph-name="icon_Definreport" unicode="&#60864;" d="M842.88 355.178667l60.330667-60.309334-337.322667-337.344h-60.224v60.202667l337.344 337.322667m0 120.704L420.288 52.970667l0.32-180.629334 180.693333-0.362666 422.72 422.762666zM341.226667-127.893333H0V896h1023.68v-442.624h-85.333333V810.666667H85.290667v-853.333334h256zM402.261333 213.418667H170.581333v-85.333334h231.68v85.333334zM242.858667 381.354667l-59.008 61.589333 203.52 195.136 126.549333-125.162667 268.8 230.4 55.466667-64.746666-328.362667-281.6-123.306667 122.026666zM1023.658667-42.56h-256v-85.333333h256v85.333333zM1023.658667 128.106667h-85.333334v-255.850667h85.333334V128.106667z"  horiz-adv-x="1024" />

    
    <glyph glyph-name="icon_Report" unicode="&#60865;" d="M469.333333-128H0V896h1024v-469.333333h-85.333333V810.666667H85.333333v-853.333334h384zM402.346667 213.333333H170.666667v-85.333333h231.68v85.333333zM789.333333 170.666667h-85.333333v-170.666667h85.333333v170.666667zM789.333333 285.824h-85.333333v-85.333333h85.333333v85.333333zM242.858667 381.354667l-59.029334 61.589333 203.669334 195.136 126.549333-125.162667 268.8 230.4 55.466667-64.746666-328.533334-281.6-123.413333 122.026666zM746.666667 341.333333a192 192 0 1 0-192-192 192 192 0 0 0 192 192m0 85.333334a277.333333 277.333333 0 1 1 277.333333-277.333334 277.333333 277.333333 0 0 1-277.333333 277.333334z"  horiz-adv-x="1024" />

    
    <glyph glyph-name="baobiao24" unicode="&#60866;" d="M73.09-44.62V216.01l239.2 178.51 160.66-232.06h3.57l57.12 39.27L944.2 494.48l-42.84 60.69-410.57-292.75-121.38 174.94-42.84 57.12L73.09 301.69V883.63H1.68v-999.64h999.64v71.4H73.09z m0 0M881.45 542.19l-132.03 21.98 12.25 73.64 220.95-36.75 36.82-6.12-42.87-257.77-73.66 12.28 21.96 132L602.34 250.9l-43.42 60.73z"  horiz-adv-x="1024" />

    
    <glyph glyph-name="baobiao25" unicode="&#60867;" d="M853.33 832H170.67c-11.78 0-21.33-9.54-21.33-21.33v-853.33c0-11.79 9.55-21.33 21.33-21.33h682.66c11.79 0 21.33 9.54 21.33 21.33V810.67c0 11.79-9.54 21.33-21.33 21.33z m-21.34-853.33H192.01V789.33H832v-810.66zM295.56 355.73h432.9c11.79 0 21.33 9.54 21.33 21.33s-9.54 21.33-21.33 21.33h-432.9c-11.78 0-21.33-9.54-21.33-21.33-0.01-11.79 9.55-21.33 21.33-21.33zM295.56 549.83h432.9c11.79 0 21.33 9.54 21.33 21.33s-9.54 21.33-21.33 21.33h-432.9c-11.78 0-21.33-9.54-21.33-21.33-0.01-11.78 9.55-21.33 21.33-21.33zM295.56 175.5h245.28c11.78 0 21.33 9.54 21.33 21.33s-9.55 21.33-21.33 21.33H295.56c-11.78 0-21.33-9.54-21.33-21.33-0.01-11.79 9.55-21.33 21.33-21.33z"  horiz-adv-x="1024" />

    
    <glyph glyph-name="meizhouhuigubaobiao" unicode="&#60868;" d="M832 768c38.4 0 64-25.6 64-64v-512c0-38.4-25.6-64-64-64H192c-38.4 0-64 25.6-64 64V704c0 38.4 25.6 64 64 64h640m0 64H192c-70.4 0-128-57.6-128-128v-512c0-70.4 57.6-128 128-128h640c70.4 0 128 57.6 128 128V704c0 70.4-57.6 128-128 128zM864-64h-704c-19.2 0-32 12.8-32 32s12.8 32 32 32h704c19.2 0 32-12.8 32-32s-12.8-32-32-32zM249.6 640h64v-448h-64zM480 512h64v-320h-64zM710.4 384h64v-192h-64z"  horiz-adv-x="1024" />

    
    <glyph glyph-name="cloud-server-solid" unicode="&#59310;" d="M705.408 142.336H318.592a24.128 24.128 0 0 0-24.192 24v67.136c0 13.248 10.88 24.064 24.192 24.064h386.816c13.312 0 24.192-10.816 24.192-24.064v-67.136c0-13.248-10.88-24-24.192-24zM704 233.472l-385.408-1.536L320 166.336l384 1.6v65.536zM705.408 10.112H318.592a24.128 24.128 0 0 0-24.192 24v67.136c0 13.248 10.88 24.064 24.192 24.064h386.816c13.312 0 24.192-10.816 24.192-24.064v-67.136c0-13.248-10.88-24-24.192-24zM704 101.248l-385.408-1.536L320 34.112l384 1.6v65.536zM705.408 274.624H318.592a24.128 24.128 0 0 0-24.192 24v67.2c0 13.248 10.88 24 24.192 24h386.816c13.312 0 24.192-10.752 24.192-24v-67.2c0-13.248-10.88-24-24.192-24zM704 365.824l-385.408-1.6L320 298.624l384 1.6V365.824zM690.496 332.224a19.2 19.2 0 1 0-38.4 0 19.2 19.2 0 0 0 38.4 0zM690.496 199.936a19.2 19.2 0 1 0-38.4 0 19.2 19.2 0 0 0 38.4 0zM690.496 67.648a19.2 19.2 0 1 0-38.4 0 19.2 19.2 0 0 0 38.4 0zM341.312 345.024h227.52v-25.6H341.312v25.6zM341.312 212.736h227.52v-25.6H341.312v25.6zM341.312 80.448h227.52v-25.6H341.312v25.6zM792.896 517.568h-1.088a274.112 274.112 0 0 1-546.944-24.768s-34.304 17.792-54.784 17.792a95.872 95.872 0 0 1-84.928-140.416c0.384-0.64 0-2.304-0.768-2.688a137.088 137.088 0 0 1 58.368-261.056h106.176v276.48a25.6 25.6 0 0 0 25.6 25.6h435.2a25.6 25.6 0 0 0 25.6-25.6v-276.48h37.696a205.44 205.44 0 1 1 0 411.072z"  horiz-adv-x="1024" />

    
    <glyph glyph-name="navigation" unicode="&#59205;" d="M853.333333 42.666667a40.106667 40.106667 0 0 0-23.466666 7.253333l-294.4 194.56a42.666667 42.666667 0 0 1-46.933334 0l-294.4-194.56a42.666667 42.666667 0 0 0-61.44 54.613333l341.333334 682.666667a42.666667 42.666667 0 0 0 75.946666 0l341.333334-682.666667a42.666667 42.666667 0 0 0-9.813334-51.2A42.666667 42.666667 0 0 0 853.333333 42.666667z"  horiz-adv-x="1024" />

    
    <glyph glyph-name="data--base" unicode="&#59605;" d="M768 800H256a64 64 0 0 1-64-64v-704a64 64 0 0 1 64-64h512a64 64 0 0 1 64 64V736a64 64 0 0 1-64 64z m0-64v-192H256V736zM256 288v192h512v-192z m0-256v192h512v-192zM352 640m-32 0a32 32 0 1 1 64 0 32 32 0 1 1-64 0ZM352 384m-32 0a32 32 0 1 1 64 0 32 32 0 1 1-64 0ZM352 128m-32 0a32 32 0 1 1 64 0 32 32 0 1 1-64 0Z"  horiz-adv-x="1024" />

    
    <glyph glyph-name="headphones_line" unicode="&#59860;" d="M845.71 19.86c-61.88 0-112.05 50.16-112.05 112.05v83.66c0 20.63 16.72 37.35 37.35 37.35s37.35-16.72 37.35-37.35v-83.66c0-20.63 16.72-37.35 37.35-37.35s37.35 16.72 37.35 37.35V252.92c0 13.82-12.33 28.39-18.67 28.39-20.63 0-37.35 16.72-37.35 37.35V356c-0.17 174.61-141.85 316.03-316.46 315.86-174.38-0.17-315.69-141.48-315.86-315.86v-37.35c0-20.63-16.72-37.35-37.35-37.35-6.35 0-18.67-14.57-18.67-28.39V131.9c0-20.63 16.72-37.35 37.35-37.35s37.35 16.72 37.35 37.35v83.66c0 20.63 16.72 37.35 37.35 37.35s37.35-16.72 37.35-37.35v-83.66c0-61.88-50.16-112.05-112.05-112.05S64 70.02 64 131.91V252.92c0.38 39.66 22.26 75.99 57.14 94.87v9.71c0.81 214.55 173.88 388.63 388.43 390.67h4.86C729.47 745.91 902.66 571.05 902.86 356v-8.59c34.94-18.82 56.84-55.18 57.14-94.87v-121.01c-0.19-61.88-50.52-111.89-112.4-111.7l-1.89 0.03z"  horiz-adv-x="1024" />

    
    <glyph glyph-name="wuliuqiache" unicode="&#60116;" d="M956.16 430.08c-1.92 4.48-3.84 8.32-7.68 12.16L760.32 630.4c-7.04 7.68-16.64 10.24-26.24 9.6H576c0 70.4-57.6 128-128 128H128C57.6 768 0 710.4 0 640v-480c0-17.92 14.08-32 32-32h32c0-70.4 57.6-128 128-128s128 57.6 128 128h320c0-70.4 57.6-128 128-128s128 57.6 128 128h32c17.92 0 32 14.08 32 32V416c0 5.12-1.28 10.24-3.84 14.08zM192 64c-35.2 0-64 28.8-64 64s28.8 64 64 64 64-28.8 64-64-28.8-64-64-64z m320 128H302.08c-21.76 38.4-62.72 64-110.08 64s-88.32-25.6-110.08-64H64V640c0 35.2 28.8 64 64 64h320c35.2 0 64-28.8 64-64v-448z m256-128c-35.2 0-64 28.8-64 64s28.8 64 64 64 64-28.8 64-64-28.8-64-64-64z m128 128h-17.92c-22.4 38.4-62.72 64-110.08 64s-88.32-25.6-110.08-64H576V576h144.64L896 400.64V192z"  horiz-adv-x="1024" />

    
    <glyph glyph-name="bingtu" unicode="&#60372;" d="M477.06 0c-192.8 0.04-349.06 156.37-349.02 349.17 0.04 192.75 156.28 348.99 349.03 349.03 11.35 0 23.08-0.6 34.9-1.75V733.1c0.02 19.27 15.64 34.88 34.9 34.9 192.71-0.21 348.89-156.38 349.1-349.1-0.02-19.27-15.64-34.88-34.9-34.9h-36.65c1.15-11.99 1.75-23.72 1.75-34.9-0.22-192.72-156.39-348.89-349.11-349.1z m0 628.39c-154.25 0-279.3-125.05-279.3-279.3s125.05-279.3 279.3-279.3 279.3 125.05 279.3 279.3c0 11.67-0.74 23.33-2.22 34.9H546.87c-19.27 0.02-34.88 15.64-34.9 34.9V626.18a277.217 277.217 0 0 1-34.91 2.21z m104.71 67.63V453.8h242.18c-15.69 126.68-115.49 226.48-242.18 242.18v0.04z"  horiz-adv-x="1024" />

    
    </font>
</defs>
</svg>
